<?xml version="1.0" encoding="utf-8"?>
<!-- Generator: Adobe Illustrator 21.0.0, SVG Export Plug-In . SVG Version: 6.00 Build 0)  -->
<svg version="1.1" id="Layer_1" xmlns="http://www.w3.org/2000/svg" xmlns:xlink="http://www.w3.org/1999/xlink" x="0px" y="0px"
	 viewBox="0 0 512 512" style="enable-background:new 0 0 512 512;" xml:space="preserve">
<style type="text/css">
	.st0{fill:#8891BF;}
</style>
<g>
	<g>
		<g>
			<rect x="207.3" y="204" class="st0" width="192" height="8"/>
		</g>
		<g>
			
				<rect x="251.3" y="169.3" transform="matrix(0.7071 -0.7071 0.7071 0.7071 -60.9448 236.7853)" class="st0" width="8" height="45.2"/>
		</g>
		<g>
			
				<rect x="264.7" y="188" transform="matrix(0.7071 -0.7071 0.7071 0.7071 -51.6091 259.3681)" class="st0" width="45.2" height="8"/>
		</g>
		<g>
			
				<rect x="315.3" y="169.4" transform="matrix(0.7071 -0.7071 0.7071 0.7071 -42.2206 282.017)" class="st0" width="8" height="45.2"/>
		</g>
		<g>
			
				<rect x="328.6" y="188" transform="matrix(0.7071 -0.7071 0.7071 0.7071 -32.8778 304.6011)" class="st0" width="45.2" height="8"/>
		</g>
		<g>
			
				<rect x="283.3" y="206" transform="matrix(0.9701 -0.2425 0.2425 0.9701 -57.3877 77.7898)" class="st0" width="8" height="131.9"/>
		</g>
		<g>
			
				<rect x="253.4" y="268" transform="matrix(0.2423 -0.9702 0.9702 0.2423 -21.9134 515.894)" class="st0" width="131.9" height="8"/>
		</g>
		<g>
			<path class="st0" d="M303.3,342.7L202.1,207.6l35.6-35.6H369l35.6,35.6L303.3,342.7z M212.6,208.4l90.7,121l90.8-121L365.7,180
				H241L212.6,208.4z"/>
		</g>
	</g>
</g>
<g>
	<g>
		<g>
			<rect x="5.2" y="33.1" class="st0" width="192" height="8"/>
		</g>
		<g>
			<rect x="49.3" y="-1.5" transform="matrix(0.7071 -0.7071 0.7071 0.7071 0.7106 43.8568)" class="st0" width="8" height="45.2"/>
		</g>
		<g>
			
				<rect x="62.6" y="17.1" transform="matrix(0.7071 -0.7071 0.7071 0.7071 10.0463 66.4396)" class="st0" width="45.2" height="8"/>
		</g>
		<g>
			
				<rect x="113.2" y="-1.5" transform="matrix(0.7071 -0.7071 0.7071 0.7071 19.4349 89.0884)" class="st0" width="8" height="45.2"/>
		</g>
		<g>
			
				<rect x="126.6" y="17.1" transform="matrix(0.7071 -0.7071 0.7071 0.7071 28.7777 111.6725)" class="st0" width="45.2" height="8"/>
		</g>
		<g>
			
				<rect x="81.2" y="35.2" transform="matrix(0.9701 -0.2425 0.2425 0.9701 -21.9768 23.6871)" class="st0" width="8" height="131.9"/>
		</g>
		<g>
			
				<rect x="51.3" y="97.1" transform="matrix(0.2423 -0.9702 0.9702 0.2423 -9.2157 190.3749)" class="st0" width="131.9" height="8"/>
		</g>
		<g>
			<path class="st0" d="M101.2,171.8L0,36.7L35.6,1.1H167l35.6,35.6L101.2,171.8z M10.5,37.5l90.8,121l90.8-121L163.7,9.1H38.9
				L10.5,37.5z"/>
		</g>
	</g>
</g>
</svg>
