<?xml version="1.0" encoding="utf-8"?>
<!-- Generator: Adobe Illustrator 21.0.0, SVG Export Plug-In . SVG Version: 6.00 Build 0)  -->
<svg version="1.1" id="Layer_1" xmlns="http://www.w3.org/2000/svg" xmlns:xlink="http://www.w3.org/1999/xlink" x="0px" y="0px"
	 viewBox="0 0 512 512" style="enable-background:new 0 0 512 512;" xml:space="preserve">
<style type="text/css">
	.st0{fill:#8891BF;}
</style>
<g>
	<g>
		<g>
			<rect x="152" y="202.7" class="st0" width="192" height="8"/>
		</g>
		<g>
			
				<rect x="196" y="168" transform="matrix(0.7071 -0.7071 0.7071 0.7071 -76.1858 197.2904)" class="st0" width="8" height="45.2"/>
		</g>
		<g>
			
				<rect x="209.4" y="186.6" transform="matrix(0.7071 -0.7071 0.7071 0.7071 -66.8501 219.8732)" class="st0" width="45.2" height="8"/>
		</g>
		<g>
			<rect x="260" y="168" transform="matrix(0.7071 -0.7071 0.7071 0.7071 -57.4615 242.522)" class="st0" width="8" height="45.2"/>
		</g>
		<g>
			
				<rect x="273.3" y="186.6" transform="matrix(0.7071 -0.7071 0.7071 0.7071 -48.1187 265.1061)" class="st0" width="45.2" height="8"/>
		</g>
		<g>
			
				<rect x="228" y="204.7" transform="matrix(0.9701 -0.2425 0.2425 0.9701 -58.711 64.3398)" class="st0" width="8" height="131.9"/>
		</g>
		<g>
			
				<rect x="198.1" y="266.6" transform="matrix(0.2423 -0.9702 0.9702 0.2423 -62.5007 461.2237)" class="st0" width="131.9" height="8"/>
		</g>
		<g>
			<path class="st0" d="M248,341.3L146.8,206.3l35.6-35.6h131.3l35.6,35.6L248,341.3z M157.3,207L248,328l90.8-121l-28.4-28.4H185.7
				L157.3,207z"/>
		</g>
	</g>
</g>
<g>
	<g>
		<g>
			<rect x="5.2" y="33.1" class="st0" width="192" height="8"/>
		</g>
		<g>
			<rect x="49.3" y="-1.5" transform="matrix(0.7071 -0.7071 0.7071 0.7071 0.7106 43.8568)" class="st0" width="8" height="45.2"/>
		</g>
		<g>
			
				<rect x="62.6" y="17.1" transform="matrix(0.7071 -0.7071 0.7071 0.7071 10.0463 66.4396)" class="st0" width="45.2" height="8"/>
		</g>
		<g>
			
				<rect x="113.2" y="-1.5" transform="matrix(0.7071 -0.7071 0.7071 0.7071 19.4349 89.0884)" class="st0" width="8" height="45.2"/>
		</g>
		<g>
			
				<rect x="126.6" y="17.1" transform="matrix(0.7071 -0.7071 0.7071 0.7071 28.7777 111.6725)" class="st0" width="45.2" height="8"/>
		</g>
		<g>
			
				<rect x="81.2" y="35.2" transform="matrix(0.9701 -0.2425 0.2425 0.9701 -21.9768 23.6871)" class="st0" width="8" height="131.9"/>
		</g>
		<g>
			
				<rect x="51.3" y="97.1" transform="matrix(0.2423 -0.9702 0.9702 0.2423 -9.2157 190.3749)" class="st0" width="131.9" height="8"/>
		</g>
		<g>
			<path class="st0" d="M101.2,171.8L0,36.7L35.6,1.1H167l35.6,35.6L101.2,171.8z M10.5,37.5l90.8,121l90.8-121L163.7,9.1H38.9
				L10.5,37.5z"/>
		</g>
	</g>
</g>
<g>
	<g>
		<g>
			<rect x="314.7" y="373.3" class="st0" width="192" height="8"/>
		</g>
		<g>
			
				<rect x="358.7" y="338.6" transform="matrix(0.7071 -0.7071 0.7071 0.7071 -149.2108 362.2924)" class="st0" width="8" height="45.2"/>
		</g>
		<g>
			
				<rect x="372" y="357.3" transform="matrix(0.7071 -0.7071 0.7071 0.7071 -139.8752 384.8752)" class="st0" width="45.2" height="8"/>
		</g>
		<g>
			
				<rect x="422.7" y="338.7" transform="matrix(0.7071 -0.7071 0.7071 0.7071 -130.4866 407.524)" class="st0" width="8" height="45.2"/>
		</g>
		<g>
			
				<rect x="436" y="357.3" transform="matrix(0.7071 -0.7071 0.7071 0.7071 -121.1438 430.1081)" class="st0" width="45.2" height="8"/>
		</g>
		<g>
			
				<rect x="390.6" y="375.3" transform="matrix(0.9701 -0.2425 0.2425 0.9701 -95.2399 108.8816)" class="st0" width="8" height="131.9"/>
		</g>
		<g>
			
				<rect x="360.7" y="437.3" transform="matrix(0.2423 -0.9702 0.9702 0.2423 -104.8163 748.3405)" class="st0" width="131.9" height="8"/>
		</g>
		<g>
			<path class="st0" d="M410.7,512L309.4,376.9l35.6-35.6h131.3l35.6,35.6L410.7,512z M319.9,377.7l90.8,121l90.8-121l-28.3-28.4
				H348.3L319.9,377.7z"/>
		</g>
	</g>
</g>
</svg>
