<?xml version="1.0" encoding="utf-8"?>
<!-- Generator: Adobe Illustrator 21.0.0, SVG Export Plug-In . SVG Version: 6.00 Build 0)  -->
<svg version="1.1" id="Layer_1" xmlns="http://www.w3.org/2000/svg" xmlns:xlink="http://www.w3.org/1999/xlink" x="0px" y="0px"
	 viewBox="0 0 512 512" style="enable-background:new 0 0 512 512;" xml:space="preserve">
<style type="text/css">
	.st0{fill:#B8C6FF;}
	.st1{fill:#8891BF;}
</style>
<g>
	<g>
		<circle class="st0" cx="311.9" cy="236.1" r="11.7"/>
		<circle class="st0" cx="244.2" cy="224.4" r="11.7"/>
		<circle class="st0" cx="256" cy="287.2" r="11.7"/>
		<circle class="st0" cx="286.8" cy="168.8" r="11.7"/>
		<circle class="st0" cx="220.8" cy="310.6" r="11.7"/>
		<circle class="st0" cx="256" cy="329.7" r="11.7"/>
		<circle class="st0" cx="300.2" cy="267.7" r="11.7"/>
		<circle class="st0" cx="170.6" cy="173.2" r="11.7"/>
		<circle class="st0" cx="194" cy="200.6" r="11.7"/>
		<circle class="st0" cx="344" cy="194" r="11.7"/>
		<circle class="st0" cx="232.5" cy="168.8" r="11.7"/>
		<circle class="st0" cx="147.2" cy="212.7" r="11.7"/>
		<circle class="st0" cx="201.5" cy="267.7" r="11.7"/>
		<circle class="st0" cx="267.7" cy="256" r="11.7"/>
		<circle class="st0" cx="332.3" cy="161.5" r="11.7"/>
		<circle class="st0" cx="286.8" cy="212.7" r="11.7"/>
		<circle class="st0" cx="194" cy="236.1" r="11.7"/>
		<circle class="st0" cx="232.5" cy="267.7" r="11.7"/>
		<circle class="st0" cx="147.2" cy="182.3" r="11.7"/>
		<g>
			<path class="st1" d="M248,369.8L113,189.7l47.5-47.5h175.1l47.5,47.5L248,369.8z M127,190.7L248,352l121-161.3l-37.8-37.8H164.9
				L127,190.7z"/>
		</g>
		<g>
			
				<rect x="178.7" y="138.7" transform="matrix(0.7071 -0.7071 0.7071 0.7071 -65.4754 179.5607)" class="st1" width="10.7" height="60.3"/>
		</g>
		<g>
			
				<rect x="196.5" y="163.5" transform="matrix(0.7071 -0.7071 0.7071 0.7071 -53.0276 209.7128)" class="st1" width="60.3" height="10.7"/>
		</g>
		<g>
			
				<rect x="264" y="138.7" transform="matrix(0.7071 -0.7071 0.7071 0.7071 -40.5089 239.8945)" class="st1" width="10.7" height="60.3"/>
		</g>
		<g>
			
				<rect x="281.8" y="163.5" transform="matrix(0.7071 -0.7071 0.7071 0.7071 -28.0543 270.036)" class="st1" width="60.3" height="10.7"/>
		</g>
		<g>
			
				<rect x="221.3" y="187.6" transform="matrix(0.9701 -0.2425 0.2425 0.9701 -60.0572 63.1869)" class="st1" width="10.7" height="175.9"/>
		</g>
		<g>
			
				<rect x="181.4" y="270.2" transform="matrix(0.2423 -0.9702 0.9702 0.2423 -63.2348 470.0597)" class="st1" width="175.9" height="10.7"/>
		</g>
		<g>
			<rect x="120" y="184.9" class="st1" width="256" height="10.7"/>
		</g>
	</g>
</g>
</svg>
