<?xml version="1.0" encoding="utf-8"?>
<!-- Generator: Adobe Illustrator 21.0.0, SVG Export Plug-In . SVG Version: 6.00 Build 0)  -->
<svg version="1.1" id="Layer_1" xmlns="http://www.w3.org/2000/svg" xmlns:xlink="http://www.w3.org/1999/xlink" x="0px" y="0px"
	 viewBox="0 0 512 512" style="enable-background:new 0 0 512 512;" xml:space="preserve">
<style type="text/css">
	.st0{fill:#1AFFD3;}
	.st1{fill:#11D1AC;}
</style>
<g id="Layer_1_1_">
</g>
<g id="Layer_1_2_">
</g>
<g>
	<g>
		<g>
			<polygon class="st0" points="319.9,174.6 352,206.6 256,334.7 160,206.6 192,174.6 			"/>
		</g>
		<g>
			<rect x="160" y="202.7" class="st1" width="192" height="8"/>
		</g>
		<g>
			
				<rect x="204" y="168" transform="matrix(0.7071 -0.7071 0.7071 0.7071 -73.8764 202.8928)" class="st1" width="8" height="45.2"/>
		</g>
		<g>
			
				<rect x="217.3" y="186.6" transform="matrix(0.7071 -0.7071 0.7071 0.7071 -64.5409 225.4646)" class="st1" width="45.2" height="8"/>
		</g>
		<g>
			
				<rect x="268" y="168" transform="matrix(0.7071 -0.7071 0.7071 0.7071 -55.1134 248.1334)" class="st1" width="8" height="45.2"/>
		</g>
		<g>
			
				<rect x="281.3" y="186.6" transform="matrix(0.7071 -0.7071 0.7071 0.7071 -45.7815 270.7076)" class="st1" width="45.2" height="8"/>
		</g>
		<g>
			
				<rect x="235.9" y="204.7" transform="matrix(0.9701 -0.2425 0.2425 0.9701 -58.4749 66.2546)" class="st1" width="8" height="131.9"/>
		</g>
		<g>
			
				<rect x="206" y="266.6" transform="matrix(0.2423 -0.9702 0.9702 0.2423 -56.4813 468.9047)" class="st1" width="131.9" height="8"/>
		</g>
		<g>
			<path class="st1" d="M256,341.4L154.7,206.3l35.6-35.6h131.3l35.6,35.6L256,341.4z M165.2,207L256,328l90.8-121l-28.3-28.4H193.6
				L165.2,207z"/>
		</g>
	</g>
</g>
<g>
	<g>
		<g>
			<polygon class="st0" points="474.7,345.2 506.8,377.2 410.8,505.3 314.8,377.2 346.8,345.2 			"/>
		</g>
		<g>
			<rect x="314.8" y="373.3" class="st1" width="192" height="8"/>
		</g>
		<g>
			
				<rect x="358.8" y="338.6" transform="matrix(0.7071 -0.7071 0.7071 0.7071 -149.1689 362.3205)" class="st1" width="8" height="45.2"/>
		</g>
		<g>
			
				<rect x="372.1" y="357.2" transform="matrix(0.7071 -0.7071 0.7071 0.7071 -139.8335 384.8923)" class="st1" width="45.2" height="8"/>
		</g>
		<g>
			
				<rect x="422.8" y="338.6" transform="matrix(0.7071 -0.7071 0.7071 0.7071 -130.406 407.5611)" class="st1" width="8" height="45.2"/>
		</g>
		<g>
			
				<rect x="436.1" y="357.2" transform="matrix(0.7071 -0.7071 0.7071 0.7071 -121.0741 430.1353)" class="st1" width="45.2" height="8"/>
		</g>
		<g>
			
				<rect x="390.7" y="375.3" transform="matrix(0.9701 -0.2425 0.2425 0.9701 -95.2264 108.8881)" class="st1" width="8" height="131.9"/>
		</g>
		<g>
			
				<rect x="360.8" y="437.2" transform="matrix(0.2423 -0.9702 0.9702 0.2423 -104.7057 748.3555)" class="st1" width="131.9" height="8"/>
		</g>
		<g>
			<path class="st1" d="M410.8,512L309.5,376.9l35.6-35.6h131.3l35.6,35.6L410.8,512z M320,377.6l90.8,121l90.8-121l-28.3-28.4
				H348.4L320,377.6z"/>
		</g>
	</g>
</g>
<g>
	<g>
		<g>
			<polygon class="st0" points="165.2,3.9 197.3,35.9 101.3,164 5.3,35.9 37.3,3.9 			"/>
		</g>
		<g>
			<rect x="5.3" y="32" class="st1" width="192" height="8"/>
		</g>
		<g>
			<rect x="49.3" y="-2.7" transform="matrix(0.7071 -0.7071 0.7071 0.7071 1.5162 43.5065)" class="st1" width="8" height="45.2"/>
		</g>
		<g>
			
				<rect x="62.6" y="15.9" transform="matrix(0.7071 -0.7071 0.7071 0.7071 10.8516 66.0783)" class="st1" width="45.2" height="8"/>
		</g>
		<g>
			
				<rect x="113.3" y="-2.7" transform="matrix(0.7071 -0.7071 0.7071 0.7071 20.2791 88.7471)" class="st1" width="8" height="45.2"/>
		</g>
		<g>
			
				<rect x="126.6" y="15.9" transform="matrix(0.7071 -0.7071 0.7071 0.7071 29.611 111.3213)" class="st1" width="45.2" height="8"/>
		</g>
		<g>
			
				<rect x="81.2" y="34" transform="matrix(0.9701 -0.2425 0.2425 0.9701 -21.6961 23.6423)" class="st1" width="8" height="131.9"/>
		</g>
		<g>
			
				<rect x="51.3" y="95.9" transform="matrix(0.2423 -0.9702 0.9702 0.2423 -8.0841 189.4752)" class="st1" width="131.9" height="8"/>
		</g>
		<g>
			<path class="st1" d="M101.3,170.7L0,35.6L35.6,0h131.3l35.6,35.6L101.3,170.7z M10.5,36.3l90.8,121l90.8-121L163.8,7.9H38.9
				L10.5,36.3z"/>
		</g>
	</g>
</g>
</svg>
