<?xml version="1.0" encoding="utf-8"?>
<!-- Generator: Adobe Illustrator 21.0.0, SVG Export Plug-In . SVG Version: 6.00 Build 0)  -->
<svg version="1.1" id="Layer_1" xmlns="http://www.w3.org/2000/svg" xmlns:xlink="http://www.w3.org/1999/xlink" x="0px" y="0px"
	 viewBox="0 0 512 512" style="enable-background:new 0 0 512 512;" xml:space="preserve">
<style type="text/css">
	.st0{fill:#17FFD2;}
	.st1{fill:#11D1AC;}
</style>
<g id="Layer_1_1_">
</g>
<circle class="st0" cx="312.7" cy="225.4" r="11.7"/>
<circle class="st0" cx="239.1" cy="211.4" r="11.7"/>
<circle class="st0" cx="277.9" cy="238.9" r="11.7"/>
<circle class="st0" cx="187.2" cy="219.4" r="11.7"/>
<circle class="st0" cx="312.7" cy="275.9" r="11.7"/>
<circle class="st0" cx="239.1" cy="272.4" r="11.7"/>
<circle class="st0" cx="294.8" cy="175" r="11.7"/>
<circle class="st0" cx="203.7" cy="260.7" r="11.7"/>
<circle class="st0" cx="259.7" cy="315.9" r="11.7"/>
<circle class="st0" cx="180.5" cy="170.7" r="11.7"/>
<circle class="st0" cx="345" cy="195.7" r="11.7"/>
<circle class="st0" cx="259.7" cy="175" r="11.7"/>
<circle class="st0" cx="217.1" cy="302" r="11.7"/>
<circle class="st0" cx="275.9" cy="281.2" r="11.7"/>
<circle class="st0" cx="153.2" cy="197.4" r="11.7"/>
<circle class="st0" cx="333.3" cy="167.4" r="11.7"/>
<circle class="st0" cx="220.1" cy="170.7" r="11.7"/>
<circle class="st0" cx="345" cy="231.1" r="11.7"/>
<circle class="st0" cx="228.8" cy="241.9" r="11.7"/>
<circle class="st0" cx="285.2" cy="211.4" r="11.7"/>
<circle class="st0" cx="180.5" cy="249" r="11.7"/>
<g id="Layer_87">
	<g>
		<g>
			<g>
				<rect x="128" y="186.7" class="st1" width="256" height="10.7"/>
			</g>
			<g>
				
					<rect x="186.7" y="140.5" transform="matrix(0.7071 -0.7071 0.7071 0.7071 -64.4018 185.7527)" class="st1" width="10.7" height="60.3"/>
			</g>
			<g>
				
					<rect x="204.5" y="165.3" transform="matrix(0.7071 -0.7071 0.7071 0.7071 -51.954 215.9048)" class="st1" width="60.3" height="10.7"/>
			</g>
			<g>
				
					<rect x="272" y="140.5" transform="matrix(0.7071 -0.7071 0.7071 0.7071 -39.4353 246.0865)" class="st1" width="10.7" height="60.3"/>
			</g>
			<g>
				
					<rect x="289.8" y="165.3" transform="matrix(0.7071 -0.7071 0.7071 0.7071 -26.9806 276.228)" class="st1" width="60.3" height="10.7"/>
			</g>
			<g>
				
					<rect x="229.3" y="189.4" transform="matrix(0.9701 -0.2425 0.2425 0.9701 -60.2546 65.1834)" class="st1" width="10.7" height="175.9"/>
			</g>
			<g>
				
					<rect x="189.4" y="272" transform="matrix(0.2423 -0.9702 0.9702 0.2423 -58.9111 479.1961)" class="st1" width="175.9" height="10.7"/>
			</g>
			<g>
				<path class="st1" d="M256,371.6L121,191.5l47.5-47.5h175.1l47.5,47.5L256,371.6z M135,192.5l121,161.3l121-161.3l-37.8-37.8
					H172.9L135,192.5z"/>
			</g>
		</g>
	</g>
</g>
</svg>
