<?xml version="1.0" encoding="utf-8"?>
<!-- Generator: Adobe Illustrator 21.0.0, SVG Export Plug-In . SVG Version: 6.00 Build 0)  -->
<svg version="1.1" id="Layer_1" xmlns="http://www.w3.org/2000/svg" xmlns:xlink="http://www.w3.org/1999/xlink" x="0px" y="0px"
	 viewBox="0 0 512 512" style="enable-background:new 0 0 512 512;" xml:space="preserve">
<style type="text/css">
	.st0{fill:#11D1AC;}
</style>
<g id="Layer_87">
	<g>
		<g>
			<g>
				<rect x="160" y="204.5" class="st0" width="192" height="8"/>
			</g>
			<g>
				
					<rect x="204" y="169.8" transform="matrix(0.7071 -0.7071 0.7071 0.7071 -75.119 203.4779)" class="st0" width="8" height="45.2"/>
			</g>
			<g>
				
					<rect x="217.4" y="188.4" transform="matrix(0.7071 -0.7071 0.7071 0.7071 -65.7833 226.0607)" class="st0" width="45.2" height="8"/>
			</g>
			<g>
				
					<rect x="268" y="169.8" transform="matrix(0.7071 -0.7071 0.7071 0.7071 -56.3947 248.7095)" class="st0" width="8" height="45.2"/>
			</g>
			<g>
				
					<rect x="281.3" y="188.4" transform="matrix(0.7071 -0.7071 0.7071 0.7071 -47.0519 271.2937)" class="st0" width="45.2" height="8"/>
			</g>
			<g>
				
					<rect x="236" y="206.5" transform="matrix(0.9701 -0.2425 0.2425 0.9701 -58.9092 66.3337)" class="st0" width="8" height="131.9"/>
			</g>
			<g>
				
					<rect x="206.1" y="268.4" transform="matrix(0.2423 -0.9702 0.9702 0.2423 -58.1887 470.3615)" class="st0" width="131.9" height="8"/>
			</g>
			<g>
				<path class="st0" d="M256,343.1L154.8,208.1l35.6-35.6h131.3l35.6,35.6L256,343.1z M165.3,208.8l90.8,121l90.8-121l-28.4-28.3
					H193.7L165.3,208.8z"/>
			</g>
		</g>
	</g>
</g>
<g id="Layer_1_1_">
</g>
<g id="Layer_87_1_">
	<g>
		<g>
			<g>
				<rect x="5.2" y="32" class="st0" width="192" height="8"/>
			</g>
			<g>
				
					<rect x="49.3" y="-2.6" transform="matrix(0.7071 -0.7071 0.7071 0.7071 1.4927 43.5348)" class="st0" width="8" height="45.2"/>
			</g>
			<g>
				<rect x="62.6" y="16" transform="matrix(0.7071 -0.7071 0.7071 0.7071 10.8284 66.1176)" class="st0" width="45.2" height="8"/>
			</g>
			<g>
				
					<rect x="113.2" y="-2.6" transform="matrix(0.7071 -0.7071 0.7071 0.7071 20.217 88.7665)" class="st0" width="8" height="45.2"/>
			</g>
			<g>
				
					<rect x="126.6" y="16" transform="matrix(0.7071 -0.7071 0.7071 0.7071 29.5598 111.3506)" class="st0" width="45.2" height="8"/>
			</g>
			<g>
				
					<rect x="81.2" y="34" transform="matrix(0.9701 -0.2425 0.2425 0.9701 -21.7079 23.654)" class="st0" width="8" height="131.9"/>
			</g>
			<g>
				
					<rect x="51.3" y="96" transform="matrix(0.2423 -0.9702 0.9702 0.2423 -8.141 189.5454)" class="st0" width="131.9" height="8"/>
			</g>
			<g>
				<path class="st0" d="M101.2,170.7L0,35.6L35.6,0H167l35.6,35.6L101.2,170.7z M10.5,36.4l90.8,121l90.8-121L163.7,8H38.9
					L10.5,36.4z"/>
			</g>
		</g>
	</g>
</g>
<g id="Layer_1_2_">
</g>
<g id="Layer_87_2_">
	<g>
		<g>
			<g>
				<rect x="314.7" y="373.3" class="st0" width="192" height="8"/>
			</g>
			<g>
				
					<rect x="358.7" y="338.7" transform="matrix(0.7071 -0.7071 0.7071 0.7071 -149.2144 362.2958)" class="st0" width="8" height="45.2"/>
			</g>
			<g>
				
					<rect x="372" y="357.3" transform="matrix(0.7071 -0.7071 0.7071 0.7071 -139.8787 384.8786)" class="st0" width="45.2" height="8"/>
			</g>
			<g>
				
					<rect x="422.7" y="338.7" transform="matrix(0.7071 -0.7071 0.7071 0.7071 -130.4901 407.5275)" class="st0" width="8" height="45.2"/>
			</g>
			<g>
				
					<rect x="436" y="357.3" transform="matrix(0.7071 -0.7071 0.7071 0.7071 -121.1473 430.1116)" class="st0" width="45.2" height="8"/>
			</g>
			<g>
				
					<rect x="390.6" y="375.3" transform="matrix(0.9701 -0.2425 0.2425 0.9701 -95.2404 108.8816)" class="st0" width="8" height="131.9"/>
			</g>
			<g>
				
					<rect x="360.7" y="437.3" transform="matrix(0.2423 -0.9702 0.9702 0.2423 -104.8194 748.3528)" class="st0" width="131.9" height="8"/>
			</g>
			<g>
				<path class="st0" d="M410.7,512L309.4,376.9l35.6-35.6h131.3l35.6,35.6L410.7,512z M319.9,377.7l90.8,121l90.8-121l-28.3-28.4
					H348.3L319.9,377.7z"/>
			</g>
		</g>
	</g>
</g>
<g id="Layer_1_3_">
</g>
</svg>
