<?xml version="1.0" encoding="utf-8"?>
<!-- Generator: Adobe Illustrator 21.0.0, SVG Export Plug-In . SVG Version: 6.00 Build 0)  -->
<svg version="1.1" id="Layer_1" xmlns="http://www.w3.org/2000/svg" xmlns:xlink="http://www.w3.org/1999/xlink" x="0px" y="0px"
	 viewBox="0 0 512 512" style="enable-background:new 0 0 512 512;" xml:space="preserve">
<style type="text/css">
	.st0{fill:#FFF59C;}
	.st1{fill:#FBD764;}
</style>
<g>
	<g>
		<g>
			<polygon class="st0" points="165.2,4 197.2,36 101.2,164 5.2,36 37.3,4 			"/>
		</g>
		<g>
			<rect x="5.2" y="32" class="st1" width="192" height="8"/>
		</g>
		<g>
			<rect x="49.3" y="-2.6" transform="matrix(0.7071 -0.7071 0.7071 0.7071 1.4719 43.5529)" class="st1" width="8" height="45.2"/>
		</g>
		<g>
			<rect x="62.6" y="16" transform="matrix(0.7071 -0.7071 0.7071 0.7071 10.8074 66.1247)" class="st1" width="45.2" height="8"/>
		</g>
		<g>
			
				<rect x="113.3" y="-2.6" transform="matrix(0.7071 -0.7071 0.7071 0.7071 20.2349 88.7935)" class="st1" width="8" height="45.2"/>
		</g>
		<g>
			
				<rect x="126.6" y="16" transform="matrix(0.7071 -0.7071 0.7071 0.7071 29.5668 111.3677)" class="st1" width="45.2" height="8"/>
		</g>
		<g>
			
				<rect x="81.2" y="34" transform="matrix(0.9701 -0.2425 0.2425 0.9701 -21.6974 23.6417)" class="st1" width="8" height="131.9"/>
		</g>
		<g>
			
				<rect x="51.3" y="96.1" transform="matrix(0.2423 -0.9702 0.9702 0.2423 -8.2151 189.6012)" class="st1" width="131.9" height="8"/>
		</g>
		<g>
			<path class="st1" d="M101.2,170.7L0,35.6L35.6,0H167l35.6,35.6L101.2,170.7z M10.5,36.4l90.8,121l90.8-121L163.7,8H38.9
				L10.5,36.4z"/>
		</g>
	</g>
</g>
<g id="Layer_1_1_">
</g>
<g>
	<g>
		<g>
			<polygon class="st0" points="474.6,345.3 506.7,377.3 410.7,505.3 314.7,377.3 346.7,345.3 			"/>
		</g>
		<g>
			<rect x="314.7" y="373.3" class="st1" width="192" height="8"/>
		</g>
		<g>
			
				<rect x="358.7" y="338.7" transform="matrix(0.7071 -0.7071 0.7071 0.7071 -149.254 362.3034)" class="st1" width="8" height="45.2"/>
		</g>
		<g>
			
				<rect x="372" y="357.3" transform="matrix(0.7071 -0.7071 0.7071 0.7071 -139.9185 384.8751)" class="st1" width="45.2" height="8"/>
		</g>
		<g>
			
				<rect x="422.7" y="338.7" transform="matrix(0.7071 -0.7071 0.7071 0.7071 -130.491 407.544)" class="st1" width="8" height="45.2"/>
		</g>
		<g>
			
				<rect x="436" y="357.3" transform="matrix(0.7071 -0.7071 0.7071 0.7071 -121.159 430.1181)" class="st1" width="45.2" height="8"/>
		</g>
		<g>
			
				<rect x="390.6" y="375.3" transform="matrix(0.9701 -0.2425 0.2425 0.9701 -95.2296 108.8587)" class="st1" width="8" height="131.9"/>
		</g>
		<g>
			
				<rect x="360.8" y="437.3" transform="matrix(0.2423 -0.9702 0.9702 0.2423 -104.81 748.3708)" class="st1" width="131.9" height="8"/>
		</g>
		<g>
			<path class="st1" d="M410.7,512L309.4,376.9l35.6-35.6h131.3l35.6,35.6L410.7,512z M319.9,377.7l90.8,121l90.8-121l-28.3-28.4
				H348.3L319.9,377.7z"/>
		</g>
	</g>
</g>
<g id="Layer_1_2_">
</g>
<g>
	<g>
		<g>
			<polygon class="st0" points="319.9,174.6 352,206.6 256,334.7 160,206.6 192,174.6 			"/>
		</g>
		<g>
			<rect x="160" y="202.7" class="st1" width="192" height="8"/>
		</g>
		<g>
			
				<rect x="204" y="168" transform="matrix(0.7071 -0.7071 0.7071 0.7071 -73.8764 202.8928)" class="st1" width="8" height="45.2"/>
		</g>
		<g>
			
				<rect x="217.3" y="186.6" transform="matrix(0.7071 -0.7071 0.7071 0.7071 -64.5409 225.4646)" class="st1" width="45.2" height="8"/>
		</g>
		<g>
			
				<rect x="268" y="168" transform="matrix(0.7071 -0.7071 0.7071 0.7071 -55.1134 248.1334)" class="st1" width="8" height="45.2"/>
		</g>
		<g>
			
				<rect x="281.3" y="186.6" transform="matrix(0.7071 -0.7071 0.7071 0.7071 -45.7815 270.7076)" class="st1" width="45.2" height="8"/>
		</g>
		<g>
			
				<rect x="235.9" y="204.7" transform="matrix(0.9701 -0.2425 0.2425 0.9701 -58.4749 66.2546)" class="st1" width="8" height="131.9"/>
		</g>
		<g>
			
				<rect x="206" y="266.6" transform="matrix(0.2423 -0.9702 0.9702 0.2423 -56.4813 468.9047)" class="st1" width="131.9" height="8"/>
		</g>
		<g>
			<path class="st1" d="M256,341.4L154.7,206.3l35.6-35.6h131.3l35.6,35.6L256,341.4z M165.2,207L256,328l90.8-121l-28.3-28.4H193.6
				L165.2,207z"/>
		</g>
	</g>
</g>
</svg>
