<?xml version="1.0" encoding="utf-8"?>
<!-- Generator: Adobe Illustrator 21.0.0, SVG Export Plug-In . SVG Version: 6.00 Build 0)  -->
<svg version="1.1" id="Layer_1" xmlns="http://www.w3.org/2000/svg" xmlns:xlink="http://www.w3.org/1999/xlink" x="0px" y="0px"
	 viewBox="0 0 512 512" style="enable-background:new 0 0 512 512;" xml:space="preserve">
<style type="text/css">
	.st0{fill:#11D1AC;}
</style>
<g id="Layer_1_1_">
</g>
<g id="Layer_87_1_">
	<g>
		<g>
			<g>
				<rect x="5.2" y="32" class="st0" width="192" height="8"/>
			</g>
			<g>
				
					<rect x="49.3" y="-2.6" transform="matrix(0.7071 -0.7071 0.7071 0.7071 1.4927 43.5348)" class="st0" width="8" height="45.2"/>
			</g>
			<g>
				<rect x="62.6" y="16" transform="matrix(0.7071 -0.7071 0.7071 0.7071 10.8284 66.1176)" class="st0" width="45.2" height="8"/>
			</g>
			<g>
				
					<rect x="113.2" y="-2.6" transform="matrix(0.7071 -0.7071 0.7071 0.7071 20.217 88.7665)" class="st0" width="8" height="45.2"/>
			</g>
			<g>
				
					<rect x="126.6" y="16" transform="matrix(0.7071 -0.7071 0.7071 0.7071 29.5598 111.3506)" class="st0" width="45.2" height="8"/>
			</g>
			<g>
				
					<rect x="81.2" y="34" transform="matrix(0.9701 -0.2425 0.2425 0.9701 -21.7079 23.654)" class="st0" width="8" height="131.9"/>
			</g>
			<g>
				
					<rect x="51.3" y="96" transform="matrix(0.2423 -0.9702 0.9702 0.2423 -8.141 189.5454)" class="st0" width="131.9" height="8"/>
			</g>
			<g>
				<path class="st0" d="M101.2,170.7L0,35.6L35.6,0H167l35.6,35.6L101.2,170.7z M10.5,36.4l90.8,121l90.8-121L163.7,8H38.9
					L10.5,36.4z"/>
			</g>
		</g>
	</g>
</g>
<g id="Layer_1_2_">
</g>
<g id="Layer_87_2_">
	<g>
		<g>
			<g>
				<rect x="207.8" y="203.2" class="st0" width="192" height="8"/>
			</g>
			<g>
				
					<rect x="251.9" y="168.5" transform="matrix(0.7071 -0.7071 0.7071 0.7071 -60.1958 236.9057)" class="st0" width="8" height="45.2"/>
			</g>
			<g>
				
					<rect x="265.2" y="187.1" transform="matrix(0.7071 -0.7071 0.7071 0.7071 -50.8601 259.4885)" class="st0" width="45.2" height="8"/>
			</g>
			<g>
				
					<rect x="315.8" y="168.5" transform="matrix(0.7071 -0.7071 0.7071 0.7071 -41.4715 282.1373)" class="st0" width="8" height="45.2"/>
			</g>
			<g>
				
					<rect x="329.2" y="187.1" transform="matrix(0.7071 -0.7071 0.7071 0.7071 -32.1287 304.7214)" class="st0" width="45.2" height="8"/>
			</g>
			<g>
				
					<rect x="283.8" y="205.2" transform="matrix(0.9701 -0.2425 0.2425 0.9701 -57.1666 77.89)" class="st0" width="8" height="131.9"/>
			</g>
			<g>
				
					<rect x="253.9" y="267.1" transform="matrix(0.2423 -0.9702 0.9702 0.2423 -20.6999 515.7643)" class="st0" width="131.9" height="8"/>
			</g>
			<g>
				<path class="st0" d="M303.8,341.9L202.6,206.8l35.6-35.6h131.3l35.6,35.6L303.8,341.9z M213.1,207.5l90.8,121l90.8-121
					l-28.4-28.4H241.5L213.1,207.5z"/>
			</g>
		</g>
	</g>
</g>
<g id="Layer_1_3_">
</g>
</svg>
