<?xml version="1.0" encoding="utf-8"?>
<!-- Generator: Adobe Illustrator 21.0.0, SVG Export Plug-In . SVG Version: 6.00 Build 0)  -->
<svg version="1.1" id="Layer_1" xmlns="http://www.w3.org/2000/svg" xmlns:xlink="http://www.w3.org/1999/xlink" x="0px" y="0px"
	 viewBox="0 0 512 512" style="enable-background:new 0 0 512 512;" xml:space="preserve">
<style type="text/css">
	.st0{fill:#FFF59C;}
	.st1{fill:#FBD764;}
</style>
<g id="Layer_1_1_">
</g>
<circle class="st0" cx="319.9" cy="222.8" r="11.7"/>
<circle class="st0" cx="252.2" cy="239.1" r="11.7"/>
<circle class="st0" cx="250.9" cy="186.7" r="11.7"/>
<circle class="st0" cx="294.8" cy="269.5" r="11.7"/>
<circle class="st0" cx="192.1" cy="198.4" r="11.7"/>
<circle class="st0" cx="203.8" cy="257.8" r="11.7"/>
<circle class="st0" cx="345" cy="190.7" r="11.7"/>
<circle class="st0" cx="249.4" cy="271.1" r="11.7"/>
<circle class="st0" cx="289.9" cy="195.7" r="11.7"/>
<circle class="st0" cx="221.2" cy="219.2" r="11.7"/>
<circle class="st0" cx="161.7" cy="170.7" r="11.7"/>
<circle class="st0" cx="349.3" cy="222.8" r="11.7"/>
<circle class="st0" cx="173.4" cy="227.3" r="11.7"/>
<circle class="st0" cx="283.1" cy="163.3" r="11.7"/>
<circle class="st0" cx="209.5" cy="163.3" r="11.7"/>
<circle class="st0" cx="227.2" cy="303.1" r="11.7"/>
<circle class="st0" cx="294.8" cy="297" r="11.7"/>
<circle class="st0" cx="256" cy="326.6" r="11.7"/>
<g>
	<g>
		<g>
			<rect x="128" y="186.7" class="st1" width="256" height="10.7"/>
		</g>
		<g>
			
				<rect x="186.7" y="140.5" transform="matrix(0.7071 -0.7071 0.7071 0.7071 -64.393 185.783)" class="st1" width="10.7" height="60.3"/>
		</g>
		<g>
			
				<rect x="204.5" y="165.3" transform="matrix(0.7071 -0.7071 0.7071 0.7071 -51.9455 215.8934)" class="st1" width="60.3" height="10.7"/>
		</g>
		<g>
			
				<rect x="272" y="140.5" transform="matrix(0.7071 -0.7071 0.7071 0.7071 -39.4273 246.0919)" class="st1" width="10.7" height="60.3"/>
		</g>
		<g>
			
				<rect x="289.8" y="165.3" transform="matrix(0.7071 -0.7071 0.7071 0.7071 -26.9702 276.204)" class="st1" width="60.3" height="10.7"/>
		</g>
		<g>
			
				<rect x="229.3" y="189.4" transform="matrix(0.9701 -0.2425 0.2425 0.9701 -60.2535 65.1812)" class="st1" width="10.7" height="175.9"/>
		</g>
		<g>
			
				<rect x="189.4" y="272" transform="matrix(0.2423 -0.9702 0.9702 0.2423 -58.8819 479.2303)" class="st1" width="175.9" height="10.7"/>
		</g>
		<g>
			<path class="st1" d="M256,371.6L121,191.5l47.5-47.5h175.1l47.5,47.5L256,371.6z M135,192.5l121,161.3l121-161.3l-37.8-37.8
				H172.9L135,192.5z"/>
		</g>
	</g>
</g>
</svg>
