<?xml version="1.0" encoding="utf-8"?>
<!-- Generator: Adobe Illustrator 21.0.0, SVG Export Plug-In . SVG Version: 6.00 Build 0)  -->
<svg version="1.1" id="Layer_1" xmlns="http://www.w3.org/2000/svg" xmlns:xlink="http://www.w3.org/1999/xlink" x="0px" y="0px"
	 viewBox="0 0 512 512" style="enable-background:new 0 0 512 512;" xml:space="preserve">
<style type="text/css">
	.st0{fill:#B8C6FF;}
	.st1{fill:#8891BF;}
</style>
<g>
	<g>
		<g>
			<polygon class="st0" points="165.2,4 197.2,36 101.2,164 5.2,36 37.3,4 			"/>
		</g>
		<g>
			<rect x="5.2" y="32" class="st1" width="192" height="8"/>
		</g>
		<g>
			<rect x="49.3" y="-2.7" transform="matrix(0.7071 -0.7071 0.7071 0.7071 1.4962 43.5314)" class="st1" width="8" height="45.2"/>
		</g>
		<g>
			<rect x="62.6" y="16" transform="matrix(0.7071 -0.7071 0.7071 0.7071 10.8319 66.1142)" class="st1" width="45.2" height="8"/>
		</g>
		<g>
			
				<rect x="113.2" y="-2.6" transform="matrix(0.7071 -0.7071 0.7071 0.7071 20.2205 88.7631)" class="st1" width="8" height="45.2"/>
		</g>
		<g>
			
				<rect x="126.6" y="16" transform="matrix(0.7071 -0.7071 0.7071 0.7071 29.5633 111.3471)" class="st1" width="45.2" height="8"/>
		</g>
		<g>
			
				<rect x="81.2" y="34" transform="matrix(0.9701 -0.2425 0.2425 0.9701 -21.7074 23.6539)" class="st1" width="8" height="131.9"/>
		</g>
		<g>
			
				<rect x="51.3" y="96" transform="matrix(0.2423 -0.9702 0.9702 0.2423 -8.1378 189.5331)" class="st1" width="131.9" height="8"/>
		</g>
		<g>
			<path class="st1" d="M101.2,170.7L0,35.6L35.6,0H167l35.6,35.6L101.2,170.7z M10.5,36.4l90.8,121l90.8-121L163.7,8H38.9
				L10.5,36.4z"/>
		</g>
	</g>
</g>
<g>
	<g>
		<g>
			<polygon class="st0" points="367.2,175.1 399.2,207.2 303.2,335.2 207.2,207.2 239.3,175.1 			"/>
		</g>
		<g>
			<rect x="207.2" y="203.2" class="st1" width="192" height="8"/>
		</g>
		<g>
			
				<rect x="251.3" y="168.5" transform="matrix(0.7071 -0.7071 0.7071 0.7071 -60.3607 236.4956)" class="st1" width="8" height="45.2"/>
		</g>
		<g>
			
				<rect x="264.6" y="187.1" transform="matrix(0.7071 -0.7071 0.7071 0.7071 -51.025 259.0784)" class="st1" width="45.2" height="8"/>
		</g>
		<g>
			
				<rect x="315.2" y="168.5" transform="matrix(0.7071 -0.7071 0.7071 0.7071 -41.6364 281.7273)" class="st1" width="8" height="45.2"/>
		</g>
		<g>
			
				<rect x="328.6" y="187.1" transform="matrix(0.7071 -0.7071 0.7071 0.7071 -32.2936 304.3114)" class="st1" width="45.2" height="8"/>
		</g>
		<g>
			
				<rect x="283.2" y="205.2" transform="matrix(0.9701 -0.2425 0.2425 0.9701 -57.1833 77.7505)" class="st1" width="8" height="131.9"/>
		</g>
		<g>
			
				<rect x="253.3" y="267.1" transform="matrix(0.2423 -0.9702 0.9702 0.2423 -21.1324 515.194)" class="st1" width="131.9" height="8"/>
		</g>
		<g>
			<path class="st1" d="M303.2,341.9L202,206.8l35.6-35.6H369l35.6,35.6L303.2,341.9z M212.5,207.5l90.8,121l90.8-121l-28.3-28.4
				H240.9L212.5,207.5z"/>
		</g>
	</g>
</g>
</svg>
