<?xml version="1.0" encoding="utf-8"?>
<!-- Generator: Adobe Illustrator 21.0.0, SVG Export Plug-In . SVG Version: 6.00 Build 0)  -->
<svg version="1.1" id="Layer_1" xmlns="http://www.w3.org/2000/svg" xmlns:xlink="http://www.w3.org/1999/xlink" x="0px" y="0px"
	 viewBox="0 0 512 512" style="enable-background:new 0 0 512 512;" xml:space="preserve">
<style type="text/css">
	.st0{fill:#B8C6FF;}
	.st1{fill:#8891BF;}
</style>
<g>
	<g>
		<g>
			<polygon class="st0" points="312,174.6 344,206.6 248,334.7 152,206.6 184,174.6 			"/>
		</g>
		<g>
			<rect x="152" y="202.7" class="st1" width="192" height="8"/>
		</g>
		<g>
			
				<rect x="196" y="168" transform="matrix(0.7071 -0.7071 0.7071 0.7071 -76.1858 197.2904)" class="st1" width="8" height="45.2"/>
		</g>
		<g>
			
				<rect x="209.4" y="186.6" transform="matrix(0.7071 -0.7071 0.7071 0.7071 -66.8501 219.8732)" class="st1" width="45.2" height="8"/>
		</g>
		<g>
			<rect x="260" y="168" transform="matrix(0.7071 -0.7071 0.7071 0.7071 -57.4615 242.522)" class="st1" width="8" height="45.2"/>
		</g>
		<g>
			
				<rect x="273.3" y="186.6" transform="matrix(0.7071 -0.7071 0.7071 0.7071 -48.1187 265.1061)" class="st1" width="45.2" height="8"/>
		</g>
		<g>
			
				<rect x="228" y="204.7" transform="matrix(0.9701 -0.2425 0.2425 0.9701 -58.711 64.3398)" class="st1" width="8" height="131.9"/>
		</g>
		<g>
			
				<rect x="198.1" y="266.6" transform="matrix(0.2423 -0.9702 0.9702 0.2423 -62.5007 461.2237)" class="st1" width="131.9" height="8"/>
		</g>
		<g>
			<path class="st1" d="M248,341.3L146.8,206.3l35.6-35.6h131.3l35.6,35.6L248,341.3z M157.3,207L248,328l90.8-121l-28.4-28.4H185.7
				L157.3,207z"/>
		</g>
	</g>
</g>
<g>
	<g>
		<g>
			<polygon class="st0" points="165.2,4 197.2,36 101.2,164 5.2,36 37.3,4 			"/>
		</g>
		<g>
			<rect x="5.2" y="32" class="st1" width="192" height="8"/>
		</g>
		<g>
			<rect x="49.3" y="-2.7" transform="matrix(0.7071 -0.7071 0.7071 0.7071 1.4962 43.5314)" class="st1" width="8" height="45.2"/>
		</g>
		<g>
			<rect x="62.6" y="16" transform="matrix(0.7071 -0.7071 0.7071 0.7071 10.8319 66.1142)" class="st1" width="45.2" height="8"/>
		</g>
		<g>
			
				<rect x="113.2" y="-2.6" transform="matrix(0.7071 -0.7071 0.7071 0.7071 20.2205 88.7631)" class="st1" width="8" height="45.2"/>
		</g>
		<g>
			
				<rect x="126.6" y="16" transform="matrix(0.7071 -0.7071 0.7071 0.7071 29.5633 111.3471)" class="st1" width="45.2" height="8"/>
		</g>
		<g>
			
				<rect x="81.2" y="34" transform="matrix(0.9701 -0.2425 0.2425 0.9701 -21.7074 23.6539)" class="st1" width="8" height="131.9"/>
		</g>
		<g>
			
				<rect x="51.3" y="96" transform="matrix(0.2423 -0.9702 0.9702 0.2423 -8.1378 189.5331)" class="st1" width="131.9" height="8"/>
		</g>
		<g>
			<path class="st1" d="M101.2,170.7L0,35.6L35.6,0H167l35.6,35.6L101.2,170.7z M10.5,36.4l90.8,121l90.8-121L163.7,8H38.9
				L10.5,36.4z"/>
		</g>
	</g>
</g>
<g>
	<g>
		<g>
			<polygon class="st0" points="473.6,345.7 505.6,377.7 409.6,505.8 313.6,377.7 345.6,345.7 			"/>
		</g>
		<g>
			<rect x="313.6" y="373.8" class="st1" width="192" height="8"/>
		</g>
		<g>
			
				<rect x="357.6" y="339.1" transform="matrix(0.7071 -0.7071 0.7071 0.7071 -149.8378 361.6511)" class="st1" width="8" height="45.2"/>
		</g>
		<g>
			
				<rect x="370.9" y="357.7" transform="matrix(0.7071 -0.7071 0.7071 0.7071 -140.5021 384.2339)" class="st1" width="45.2" height="8"/>
		</g>
		<g>
			
				<rect x="421.6" y="339.1" transform="matrix(0.7071 -0.7071 0.7071 0.7071 -131.1135 406.8828)" class="st1" width="8" height="45.2"/>
		</g>
		<g>
			
				<rect x="434.9" y="357.7" transform="matrix(0.7071 -0.7071 0.7071 0.7071 -121.7707 429.4669)" class="st1" width="45.2" height="8"/>
		</g>
		<g>
			
				<rect x="389.6" y="375.8" transform="matrix(0.9701 -0.2425 0.2425 0.9701 -95.3782 108.6309)" class="st1" width="8" height="131.9"/>
		</g>
		<g>
			
				<rect x="359.7" y="437.7" transform="matrix(0.2423 -0.9702 0.9702 0.2423 -106.0634 747.6158)" class="st1" width="131.9" height="8"/>
		</g>
		<g>
			<path class="st1" d="M409.6,512.4L308.3,377.4l35.6-35.6h131.3l35.6,35.6L409.6,512.4z M318.8,378.1l90.8,121l90.8-121L472,349.8
				H347.3L318.8,378.1z"/>
		</g>
	</g>
</g>
</svg>
