<?xml version="1.0" encoding="utf-8"?>
<!-- Generator: Adobe Illustrator 21.0.0, SVG Export Plug-In . SVG Version: 6.00 Build 0)  -->
<svg version="1.1" id="Layer_1" xmlns="http://www.w3.org/2000/svg" xmlns:xlink="http://www.w3.org/1999/xlink" x="0px" y="0px"
	 viewBox="0 0 512 512" style="enable-background:new 0 0 512 512;" xml:space="preserve">
<style type="text/css">
	.st0{fill:#1AFFD3;}
	.st1{fill:#11D1AC;}
</style>
<g id="Layer_1_1_">
</g>
<g id="Layer_1_2_">
</g>
<g>
	<g>
		<g>
			<polygon class="st0" points="402.6,234.1 434.7,266.1 338.7,394.2 242.7,266.1 274.7,234.1 			"/>
		</g>
		<g>
			<rect x="242.7" y="262.2" class="st1" width="192" height="8"/>
		</g>
		<g>
			
				<rect x="286.7" y="227.5" transform="matrix(0.7071 -0.7071 0.7071 0.7071 -91.6937 278.8173)" class="st1" width="8" height="45.2"/>
		</g>
		<g>
			
				<rect x="300" y="246.1" transform="matrix(0.7071 -0.7071 0.7071 0.7071 -82.3636 301.3728)" class="st1" width="45.2" height="8"/>
		</g>
		<g>
			
				<rect x="350.7" y="227.4" transform="matrix(0.7071 -0.7071 0.7071 0.7071 -72.9044 324.0097)" class="st1" width="8" height="45.2"/>
		</g>
		<g>
			
				<rect x="364" y="246.1" transform="matrix(0.7071 -0.7071 0.7071 0.7071 -63.6063 346.6341)" class="st1" width="45.2" height="8"/>
		</g>
		<g>
			
				<rect x="318.6" y="264.2" transform="matrix(0.9701 -0.2425 0.2425 0.9701 -70.4326 88.0879)" class="st1" width="8" height="131.9"/>
		</g>
		<g>
			
				<rect x="288.8" y="326.1" transform="matrix(0.2423 -0.9702 0.9702 0.2423 -51.5072 594.272)" class="st1" width="131.9" height="8"/>
		</g>
		<g>
			<path class="st1" d="M338.7,400.9L237.4,265.8l35.6-35.6h131.3l35.6,35.6L338.7,400.9z M247.9,266.5l90.8,121l90.8-121
				l-28.3-28.4H276.3L247.9,266.5z"/>
		</g>
	</g>
</g>
<g>
	<g>
		<g>
			<polygon class="st0" points="200,63.4 232.1,95.4 136.1,223.5 40.1,95.4 72.1,63.4 			"/>
		</g>
		<g>
			<rect x="40.1" y="91.5" class="st1" width="192" height="8"/>
		</g>
		<g>
			
				<rect x="84.1" y="56.8" transform="matrix(0.7071 -0.7071 0.7071 0.7071 -30.3515 85.5409)" class="st1" width="8" height="45.2"/>
		</g>
		<g>
			
				<rect x="97.4" y="75.4" transform="matrix(0.7071 -0.7071 0.7071 0.7071 -21.0214 108.0964)" class="st1" width="45.2" height="8"/>
		</g>
		<g>
			
				<rect x="148.1" y="56.8" transform="matrix(0.7071 -0.7071 0.7071 0.7071 -11.5915 130.8039)" class="st1" width="8" height="45.2"/>
		</g>
		<g>
			
				<rect x="161.4" y="75.4" transform="matrix(0.7071 -0.7071 0.7071 0.7071 -2.2641 153.3576)" class="st1" width="45.2" height="8"/>
		</g>
		<g>
			
				<rect x="116" y="93.5" transform="matrix(0.9701 -0.2425 0.2425 0.9701 -35.0858 33.8593)" class="st1" width="8" height="131.9"/>
		</g>
		<g>
			
				<rect x="86.1" y="155.5" transform="matrix(0.2423 -0.9702 0.9702 0.2423 -39.48 268.3509)" class="st1" width="131.9" height="8"/>
		</g>
		<g>
			<path class="st1" d="M136.1,230.2L34.8,95.1l35.6-35.6h131.3l35.6,35.6L136.1,230.2z M45.3,95.8l90.8,121l90.8-121l-28.3-28.4
				H73.7L45.3,95.8z"/>
		</g>
	</g>
</g>
</svg>
