<?xml version="1.0" encoding="utf-8"?>
<!-- Generator: Adobe Illustrator 21.0.0, SVG Export Plug-In . SVG Version: 6.00 Build 0)  -->
<svg version="1.1" id="Layer_1" xmlns="http://www.w3.org/2000/svg" xmlns:xlink="http://www.w3.org/1999/xlink" x="0px" y="0px"
	 viewBox="0 0 512 512" style="enable-background:new 0 0 512 512;" xml:space="preserve">
<style type="text/css">
	.st0{fill:#FFF59C;}
	.st1{fill:#FBD764;}
</style>
<g>
	<g>
		<g>
			<polygon class="st0" points="231.8,56.7 263.8,88.7 167.8,216.7 71.8,88.7 103.9,56.7 			"/>
		</g>
		<g>
			<rect x="71.8" y="84.7" class="st1" width="192" height="8"/>
		</g>
		<g>
			
				<rect x="115.9" y="50.1" transform="matrix(0.7071 -0.7071 0.7071 0.7071 -16.3139 106.114)" class="st1" width="8" height="45.2"/>
		</g>
		<g>
			
				<rect x="129.2" y="68.8" transform="matrix(0.7071 -0.7071 0.7071 0.7071 -6.9785 128.6857)" class="st1" width="45.2" height="8"/>
		</g>
		<g>
			
				<rect x="179.9" y="50.1" transform="matrix(0.7071 -0.7071 0.7071 0.7071 2.449 151.3546)" class="st1" width="8" height="45.2"/>
		</g>
		<g>
			
				<rect x="193.2" y="68.7" transform="matrix(0.7071 -0.7071 0.7071 0.7071 11.7809 173.9288)" class="st1" width="45.2" height="8"/>
		</g>
		<g>
			
				<rect x="147.8" y="86.8" transform="matrix(0.9701 -0.2425 0.2425 0.9701 -32.501 41.3737)" class="st1" width="8" height="131.9"/>
		</g>
		<g>
			
				<rect x="118" y="148.8" transform="matrix(0.2423 -0.9702 0.9702 0.2423 -8.9115 294.2095)" class="st1" width="131.9" height="8"/>
		</g>
		<g>
			<path class="st1" d="M167.8,223.4L66.6,88.3l35.6-35.6h131.4l35.6,35.6L167.8,223.4z M77.1,89.1l90.8,121l90.8-121l-28.4-28.4
				H105.5L77.1,89.1z"/>
		</g>
	</g>
</g>
<g id="Layer_1_1_">
</g>
<g>
	<g>
		<g>
			<polygon class="st0" points="435.2,227.4 467.3,259.4 371.3,387.4 275.3,259.4 307.3,227.4 			"/>
		</g>
		<g>
			<rect x="275.3" y="255.4" class="st1" width="192" height="8"/>
		</g>
		<g>
			
				<rect x="319.3" y="220.9" transform="matrix(0.7071 -0.7071 0.7071 0.7071 -77.4614 299.9259)" class="st1" width="8" height="45.2"/>
		</g>
		<g>
			
				<rect x="332.6" y="239.5" transform="matrix(0.7071 -0.7071 0.7071 0.7071 -68.126 322.4976)" class="st1" width="45.2" height="8"/>
		</g>
		<g>
			
				<rect x="383.3" y="220.8" transform="matrix(0.7071 -0.7071 0.7071 0.7071 -58.6984 345.1665)" class="st1" width="8" height="45.2"/>
		</g>
		<g>
			
				<rect x="396.6" y="239.5" transform="matrix(0.7071 -0.7071 0.7071 0.7071 -49.3665 367.7406)" class="st1" width="45.2" height="8"/>
		</g>
		<g>
			
				<rect x="351.2" y="257.5" transform="matrix(0.9701 -0.2425 0.2425 0.9701 -67.8257 95.7857)" class="st1" width="8" height="131.9"/>
		</g>
		<g>
			
				<rect x="321.4" y="319.4" transform="matrix(0.2423 -0.9702 0.9702 0.2423 -20.3252 620.85)" class="st1" width="131.9" height="8"/>
		</g>
		<g>
			<path class="st1" d="M371.3,394.1L270,259l35.6-35.6h131.3l35.6,35.6L371.3,394.1z M280.5,259.9l90.8,121l90.8-121l-28.3-28.4
				H308.9L280.5,259.9z"/>
		</g>
	</g>
</g>
<g id="Layer_1_2_">
</g>
</svg>
