<?xml version="1.0" encoding="utf-8"?>
<!-- Generator: Adobe Illustrator 21.0.0, SVG Export Plug-In . SVG Version: 6.00 Build 0)  -->
<svg version="1.1" id="Layer_1" xmlns="http://www.w3.org/2000/svg" xmlns:xlink="http://www.w3.org/1999/xlink" x="0px" y="0px"
	 viewBox="0 0 512 512" style="enable-background:new 0 0 512 512;" xml:space="preserve">
<style type="text/css">
	.st0{fill:none;stroke:#232323;stroke-width:4;stroke-miterlimit:10;}
	.st1{fill:none;stroke:#8891BF;stroke-width:4;stroke-miterlimit:10;}
	.st2{fill:#8891BF;stroke:#232323;stroke-width:4;stroke-miterlimit:10;}
</style>
<g>
	<g>
		<circle class="st0" cx="256" cy="256" r="16.9"/>
		<g>
			<ellipse class="st1" cx="256" cy="256" rx="33.8" ry="101.2"/>
			<circle class="st2" cx="278.6" cy="331.9" r="8.4"/>
		</g>
		<g>
			<ellipse transform="matrix(0.5 -0.866 0.866 0.5 -93.71 349.6953)" class="st1" cx="256" cy="256" rx="33.7" ry="101.2"/>
			<ellipse transform="matrix(0.5 -0.866 0.866 0.5 -116.1049 273.7964)" class="st2" cx="179.1" cy="237.4" rx="8.5" ry="8.5"/>
		</g>
		<g>
			<ellipse transform="matrix(0.866 -0.5 0.5 0.866 -93.7013 162.2989)" class="st1" cx="256" cy="256" rx="101.2" ry="33.7"/>
			<ellipse transform="matrix(0.866 -0.5 0.5 0.866 -57.6043 181.8062)" class="st2" cx="310.4" cy="198.4" rx="8.5" ry="8.4"/>
		</g>
	</g>
</g>
<g>
	<g>
		<circle class="st0" cx="422.7" cy="410.2" r="16.9"/>
		<g>
			<ellipse class="st1" cx="422.7" cy="410.2" rx="33.8" ry="101.2"/>
			<circle class="st2" cx="445.3" cy="486.2" r="8.4"/>
		</g>
		<g>
			<ellipse transform="matrix(0.5 -0.866 0.866 0.5 -143.947 571.1809)" class="st1" cx="422.7" cy="410.3" rx="33.7" ry="101.2"/>
			<ellipse transform="matrix(0.5 -0.866 0.866 0.5 -166.342 495.2821)" class="st2" cx="345.8" cy="391.7" rx="8.5" ry="8.5"/>
		</g>
		<g>
			<ellipse transform="matrix(0.866 -0.5 0.5 0.866 -148.4939 266.3155)" class="st1" cx="422.7" cy="410.2" rx="101.2" ry="33.7"/>
			<ellipse transform="matrix(0.866 -0.5 0.5 0.866 -112.3969 285.8228)" class="st2" cx="477.1" cy="352.6" rx="8.5" ry="8.4"/>
		</g>
	</g>
</g>
<g>
	<g>
		<circle class="st0" cx="89.3" cy="101.2" r="16.9"/>
		<g>
			<ellipse class="st1" cx="89.3" cy="101.2" rx="33.8" ry="101.2"/>
			<circle class="st2" cx="112" cy="177.2" r="8.4"/>
		</g>
		<g>
			<ellipse transform="matrix(0.5 -0.866 0.866 0.5 -43.0349 127.9684)" class="st1" cx="89.3" cy="101.3" rx="33.7" ry="101.2"/>
			<ellipse transform="matrix(0.5 -0.866 0.866 0.5 -65.4298 52.0696)" class="st2" cx="12.4" cy="82.7" rx="8.5" ry="8.5"/>
		</g>
		<g>
			<ellipse transform="matrix(0.866 -0.5 0.5 0.866 -38.6574 58.2203)" class="st1" cx="89.3" cy="101.2" rx="101.2" ry="33.7"/>
			<ellipse transform="matrix(0.866 -0.5 0.5 0.866 -2.5604 77.7276)" class="st2" cx="143.8" cy="43.6" rx="8.5" ry="8.4"/>
		</g>
	</g>
</g>
</svg>
