<?xml version="1.0" encoding="utf-8"?>
<!-- Generator: Adobe Illustrator 21.0.0, SVG Export Plug-In . SVG Version: 6.00 Build 0)  -->
<svg version="1.1" id="Layer_1" xmlns="http://www.w3.org/2000/svg" xmlns:xlink="http://www.w3.org/1999/xlink" x="0px" y="0px"
	 viewBox="0 0 512 512" style="enable-background:new 0 0 512 512;" xml:space="preserve">
<style type="text/css">
	.st0{fill:#B8C6FF;}
	.st1{clip-path:url(#SVGID_2_);}
	.st2{fill:none;stroke:#FFFFFF;stroke-width:6;stroke-miterlimit:10;}
	.st3{fill:none;stroke:#8891BF;stroke-width:4;stroke-miterlimit:10;}
	.st4{fill:none;stroke:#232323;stroke-width:4;stroke-miterlimit:10;}
	.st5{fill:#8891BF;}
	.st6{clip-path:url(#SVGID_4_);}
</style>
<g>
	<g id="Layer_2">
		<g>
			<path class="st0" d="M261.3,104.4c6.2,10.8-5.9,30.5-29.2,50.6c-7.4-6.4-15.9-12.9-25.3-19.1c-0.8-11.2-2.1-21.9-3.9-31.5
				c5.9-2.1,11.6-3.8,16.9-5c0.2,0.8,0.5,1.5,0.9,2.2c2.3,4,7.5,5.4,11.6,3.1c2.9-1.6,4.4-4.9,4.2-8
				C248.8,95.9,257.8,98.3,261.3,104.4z"/>
			<path class="st0" d="M232.1,155c23.2,20.2,35.5,39.8,29.2,50.6c-6.2,10.8-29.3,10.1-58.4,0c1.9-9.6,3.2-20.2,3.9-31.5
				C216.1,167.9,224.7,161.4,232.1,155z"/>
			<path class="st0" d="M206.8,135.9c9.4,6.2,17.9,12.8,25.3,19.1c-7.4,6.4-15.9,12.9-25.3,19.1c0.4-6.2,0.6-12.6,0.6-19.1
				S207.1,142.1,206.8,135.9z"/>
			<path class="st0" d="M206.8,135.9c0.4,6.2,0.6,12.6,0.6,19.1c0,6.5-0.2,12.9-0.6,19.1c-5.2,3.5-10.6,6.8-16.3,10.1
				c-5.7,3.3-11.3,6.3-16.9,9.1c-5.5-2.8-11.2-5.8-16.9-9.1c-5.7-3.3-11.1-6.7-16.3-10.1c-0.4-6.2-0.6-12.6-0.6-19.1
				c0-6.5,0.2-13,0.6-19.1c5.2-3.4,10.6-6.8,16.3-10c5.7-3.2,11.3-6.3,16.9-9.1c5.6,2.8,11.2,5.8,16.9,9.1
				C196.2,129.2,201.6,132.5,206.8,135.9z"/>
			<path class="st0" d="M202.9,104.4c1.9,9.6,3.2,20.2,3.9,31.5c-5.2-3.4-10.6-6.8-16.3-10.1c-5.7-3.3-11.3-6.3-16.9-9.1
				C183.7,111.8,193.6,107.6,202.9,104.4z"/>
			<path class="st0" d="M206.8,174.2c-0.8,11.2-2.1,21.9-3.9,31.5c-9.2-3.2-19.1-7.3-29.2-12.4c5.6-2.8,11.2-5.8,16.9-9.1
				C196.2,181,201.6,177.6,206.8,174.2z"/>
			<path class="st0" d="M202.9,205.7c-1.2,6.2-2.6,11.9-4.2,17.2c-0.8-0.2-1.6-0.4-2.4-0.4c-4.7,0-8.4,3.8-8.4,8.4
				c0,3.4,1.9,6.3,4.8,7.7c-5.4,11.2-12,17.7-19,17.7c-12.5,0-23.4-20.3-29.2-50.6c9.2-3.2,19.1-7.3,29.2-12.4
				C183.7,198.3,193.6,202.4,202.9,205.7z"/>
			<path class="st0" d="M173.6,53.8c12.5,0,23.4,20.3,29.2,50.6c-9.2,3.2-19.1,7.3-29.2,12.4c-10.1-5-19.9-9.2-29.2-12.4
				C150.2,74.1,161.2,53.8,173.6,53.8z"/>
			<path class="st0" d="M173.6,116.8c-5.5,2.8-11.2,5.8-16.9,9.1c-5.7,3.3-11.1,6.7-16.3,10c0.8-11.2,2.1-21.9,3.9-31.5
				C153.7,107.6,163.5,111.8,173.6,116.8z"/>
			<path class="st0" d="M156.7,184.3c5.7,3.3,11.3,6.3,16.9,9.1c-10.1,5-19.9,9.2-29.2,12.4c-1.9-9.6-3.2-20.2-3.9-31.5
				C145.6,177.6,151,181,156.7,184.3z"/>
			<path class="st0" d="M144.4,104.4c-1.9,9.6-3.2,20.2-3.9,31.5c-9.4,6.3-17.9,12.8-25.3,19.1c-4.8-4.1-9.1-8.2-12.8-12.3
				c0.7-0.6,1.2-1.3,1.6-2.1c2.3-4,1-9.2-3.1-11.5c-3-1.7-6.6-1.4-9.2,0.5c-6.9-10.2-9.2-19.1-5.7-25.3
				C92.2,93.6,115.3,94.4,144.4,104.4z"/>
			<path class="st0" d="M140.5,174.2c0.8,11.2,2.1,21.9,3.9,31.5c-29.1,10.1-52.2,10.8-58.4,0c-6.2-10.8,5.9-30.4,29.2-50.6
				C122.5,161.4,131.1,167.9,140.5,174.2z"/>
			<path class="st0" d="M140.5,135.9c-0.4,6.2-0.6,12.6-0.6,19.1c0,6.5,0.2,12.9,0.6,19.1c-9.4-6.2-17.9-12.8-25.3-19.1
				C122.5,148.6,131.1,142.1,140.5,135.9z"/>
		</g>
	</g>
	<g>
		<defs>
			<path id="SVGID_1_" d="M232,155.1c23.3-20.2,35.5-39.8,29.3-50.6c-3.5-6.1-12.5-8.5-24.9-7.7c0.2,3.2-1.3,6.4-4.2,8
				c-4,2.3-9.2,1-11.5-3.1c-0.5-0.8-0.8-1.5-0.9-2.2c-5.3,1.3-11,2.9-17,5h0.1c-5.8-30.3-16.8-50.6-29.2-50.6
				c-12.5,0-23.4,20.3-29.2,50.6c-29.1-10-52.2-10.8-58.4-0.1c-3.5,6.1-1.2,15.1,5.7,25.3c2.6-1.9,6.2-2.3,9.2-0.5
				c4.1,2.3,5.4,7.5,3.1,11.6c-0.4,0.8-1,1.5-1.7,2.1c3.8,4,8,8.2,12.8,12.3c-23.2,20.2-35.4,39.8-29.2,50.6
				c6.2,10.8,29.3,10.1,58.4,0l0-0.1c5.9,30.3,16.8,50.6,29.2,50.6c7.1,0,13.6-6.5,19.1-17.7c-2.8-1.4-4.8-4.3-4.8-7.7
				c0-4.7,3.8-8.4,8.4-8.4c0.8,0,1.7,0.2,2.4,0.4c1.6-5.2,3-11,4.2-17.2h0.1c29.1,10.1,52.2,10.8,58.4,0
				C267.6,194.9,255.4,175.3,232,155.1"/>
		</defs>
		<clipPath id="SVGID_2_">
			<use xlink:href="#SVGID_1_"  style="overflow:visible;"/>
		</clipPath>
		<g class="st1">
			<line class="st2" x1="-82.8" y1="-129" x2="301.2" y2="255"/>
			<line class="st2" x1="-28.4" y1="-48" x2="355.6" y2="336"/>
			<line class="st2" x1="-55.6" y1="-48.4" x2="328.4" y2="335.6"/>
			<line class="st2" x1="-1.2" y1="32.6" x2="382.8" y2="416.6"/>
			<line class="st2" x1="7.2" y1="-145.5" x2="391.2" y2="238.5"/>
			<line class="st2" x1="61.6" y1="-64.5" x2="445.6" y2="319.5"/>
			<line class="st2" x1="34.4" y1="-64.9" x2="418.4" y2="319.1"/>
			<line class="st2" x1="34.4" y1="-36.9" x2="418.4" y2="347.1"/>
			<line class="st2" x1="-109.3" y1="-53.8" x2="274.7" y2="330.2"/>
			<line class="st2" x1="-54.9" y1="27.2" x2="329.1" y2="411.2"/>
			<line class="st2" x1="-82.1" y1="26.8" x2="301.9" y2="410.8"/>
		</g>
	</g>
	<g id="Layer_1_1_">
		<g>
			<g>
				<g id="XMLID_1_">
					<g>
						<path class="st3" d="M91.6,129.7c-6.9-10.2-9.2-19.1-5.7-25.3c6.2-10.8,29.3-10,58.4,0c9.2,3.2,19.1,7.3,29.2,12.4
							c5.6,2.8,11.2,5.8,16.9,9.1c5.7,3.3,11.1,6.7,16.3,10.1c9.4,6.2,17.9,12.8,25.3,19.1c23.2,20.2,35.5,39.8,29.2,50.6
							c-6.2,10.8-29.3,10-58.4,0c-9.2-3.2-19.1-7.3-29.2-12.4c-5.6-2.8-11.2-5.8-16.9-9.1c-5.7-3.3-11.1-6.7-16.3-10.1
							c-9.4-6.2-17.9-12.8-25.4-19.1c-4.8-4.1-9.1-8.2-12.8-12.3"/>
						<path class="st4" d="M91.6,129.7c2.6-2,6.2-2.3,9.2-0.5c4,2.3,5.4,7.5,3.1,11.6c-0.5,0.8-1,1.5-1.7,2.1
							c-2.6,2.4-6.6,2.9-9.8,1c-4-2.3-5.4-7.5-3.1-11.5C89.9,131.2,90.7,130.4,91.6,129.7z"/>
						<path class="st3" d="M236.5,96.8c12.4-0.9,21.3,1.6,24.8,7.7c6.2,10.8-5.9,30.5-29.2,50.6c-7.4,6.4-15.9,12.9-25.3,19.1
							c-5.2,3.5-10.6,6.8-16.3,10.1c-5.7,3.3-11.3,6.3-16.9,9.1c-10.1,5-20,9.2-29.2,12.4c-29.1,10-52.2,10.8-58.4,0
							c-6.2-10.8,5.9-30.5,29.2-50.6c7.4-6.5,15.9-12.9,25.4-19.1c5.2-3.5,10.6-6.8,16.3-10c5.7-3.2,11.3-6.3,16.9-9.1
							c10.1-5,19.9-9.2,29.2-12.4c5.9-2.1,11.6-3.8,16.9-5"/>
						<path class="st4" d="M219.8,99.4c-0.8-3.5,0.7-7.3,4-9.3c4-2.3,9.2-1,11.5,3.1c0.7,1.1,1,2.3,1.1,3.5c0.2,3.1-1.3,6.3-4.2,8
							c-4.1,2.3-9.2,1-11.6-3.1C220.3,101,220,100.2,219.8,99.4z"/>
						<path class="st3" d="M192.7,238.6c-5.4,11.2-12,17.7-19.1,17.7c-12.4,0-23.4-20.3-29.2-50.6c-1.9-9.6-3.2-20.2-3.9-31.5
							c-0.4-6.2-0.6-12.6-0.6-19.1c0-6.5,0.2-13,0.6-19.1c0.8-11.2,2.1-21.9,3.9-31.5c5.9-30.3,16.7-50.6,29.2-50.6
							c12.5,0,23.4,20.3,29.2,50.6c1.9,9.6,3.2,20.2,3.9,31.5c0.4,6.2,0.6,12.6,0.6,19.1c0,6.5-0.2,12.9-0.6,19.1
							c-0.8,11.2-2.1,21.9-3.9,31.5c-1.2,6.2-2.6,11.9-4.2,17.2"/>
						<path class="st4" d="M198.7,222.9c3.5,1.1,6.1,4.3,6.1,8.1c0,4.7-3.8,8.4-8.4,8.4c-1.3,0-2.5-0.3-3.6-0.8
							c-2.8-1.3-4.8-4.3-4.8-7.7c0-4.7,3.8-8.4,8.4-8.4C197.1,222.5,197.9,222.7,198.7,222.9z"/>
					</g>
				</g>
			</g>
			<circle class="st4" cx="173.6" cy="155" r="16.9"/>
		</g>
		<path class="st5" d="M236.5,96.8c0.2,3.2-1.3,6.3-4.2,8c-4.1,2.3-9.2,1-11.6-3.1c-0.4-0.7-0.8-1.4-0.9-2.2
			C225.8,98,231.4,97.1,236.5,96.8z"/>
		<path class="st5" d="M235.3,93.2c0.7,1.1,1,2.3,1.1,3.5c-5,0.4-10.6,1.3-16.6,2.7c-0.8-3.5,0.7-7.3,4-9.3
			C227.8,87.8,233,89.2,235.3,93.2z"/>
		<path class="st5" d="M198.7,222.9c3.5,1.1,6.1,4.3,6.1,8.1c0,4.7-3.8,8.4-8.4,8.4c-1.3,0-2.5-0.3-3.6-0.8
			C194.9,234.1,196.9,228.8,198.7,222.9z"/>
		<path class="st5" d="M198.7,222.9c-1.8,5.9-3.8,11.2-6,15.8c-2.8-1.3-4.8-4.3-4.8-7.7c0-4.7,3.8-8.4,8.4-8.4
			C197.1,222.5,197.9,222.7,198.7,222.9z"/>
		<path class="st5" d="M100.9,129.2c4,2.3,5.4,7.5,3.1,11.6c-0.5,0.8-1,1.5-1.7,2.1c-4.3-4.5-7.8-8.9-10.6-13.1
			C94.3,127.7,97.9,127.4,100.9,129.2z"/>
		<path class="st5" d="M102.3,142.7c-2.6,2.4-6.6,2.9-9.8,1c-4-2.3-5.4-7.5-3.1-11.5c0.6-1.1,1.4-2,2.3-2.6
			C94.5,133.9,98,138.2,102.3,142.7z"/>
	</g>
</g>
<g>
	<g id="Layer_2_1_">
		<g>
			<path class="st0" d="M426.1,306.9c6.2,10.8-5.9,30.5-29.2,50.6c-7.4-6.5-15.9-12.9-25.4-19.1c-0.8-11.2-2.1-21.9-3.9-31.5
				c5.9-2.1,11.6-3.8,17-5c0.1,0.8,0.4,1.5,0.9,2.2c2.3,4,7.5,5.4,11.5,3.1c2.9-1.6,4.4-4.9,4.2-8
				C413.6,298.4,422.5,300.8,426.1,306.9z"/>
			<path class="st0" d="M396.9,357.5c23.2,20.2,35.5,39.8,29.2,50.6c-6.2,10.8-29.3,10-58.4,0c1.9-9.6,3.2-20.2,3.9-31.5
				C380.9,370.4,389.5,363.9,396.9,357.5z"/>
			<path class="st0" d="M371.5,338.4c9.4,6.2,17.9,12.8,25.4,19.1c-7.4,6.4-15.9,12.9-25.4,19.1c0.4-6.2,0.6-12.6,0.6-19.1
				C372.1,351,371.9,344.6,371.5,338.4z"/>
			<path class="st0" d="M371.5,338.4c0.4,6.2,0.6,12.6,0.6,19.1c0,6.5-0.2,12.9-0.6,19.1c-5.2,3.5-10.6,6.8-16.3,10.1
				c-5.7,3.3-11.3,6.3-16.9,9.1c-5.6-2.8-11.2-5.8-16.9-9.1c-5.7-3.3-11.1-6.7-16.3-10.1c-0.4-6.2-0.6-12.6-0.6-19.1
				c0-6.5,0.2-13,0.6-19.1c5.2-3.5,10.6-6.8,16.3-10c5.7-3.2,11.3-6.3,16.9-9.1c5.5,2.8,11.2,5.8,16.9,9.1
				C361,331.7,366.4,335,371.5,338.4z"/>
			<path class="st0" d="M367.6,306.9c1.9,9.6,3.2,20.2,3.9,31.5c-5.2-3.5-10.6-6.8-16.3-10.1c-5.7-3.3-11.3-6.3-16.9-9.1
				C348.5,314.3,358.3,310.1,367.6,306.9z"/>
			<path class="st0" d="M371.5,376.7c-0.8,11.2-2.1,21.9-3.9,31.5c-9.2-3.2-19.1-7.3-29.2-12.4c5.5-2.8,11.2-5.8,16.9-9.1
				C361,383.5,366.4,380.1,371.5,376.7z"/>
			<path class="st0" d="M367.6,408.2c-1.2,6.2-2.6,11.9-4.2,17.2c-0.8-0.2-1.6-0.4-2.4-0.4c-4.6,0-8.4,3.8-8.4,8.4
				c0,3.4,2,6.3,4.8,7.6c-5.4,11.2-12,17.7-19,17.7c-12.5,0-23.4-20.3-29.2-50.6c9.2-3.2,19.1-7.3,29.2-12.4
				C348.5,400.8,358.3,404.9,367.6,408.2z"/>
			<path class="st0" d="M338.4,256.3c12.4,0,23.4,20.3,29.2,50.6c-9.2,3.2-19.1,7.4-29.2,12.4c-10.1-5-20-9.1-29.2-12.4
				C315,276.6,325.9,256.3,338.4,256.3z"/>
			<path class="st0" d="M338.4,319.3c-5.6,2.8-11.2,5.8-16.9,9.1c-5.7,3.3-11.1,6.7-16.3,10c0.8-11.2,2.1-21.9,3.9-31.5
				C318.4,310.1,328.3,314.3,338.4,319.3z"/>
			<path class="st0" d="M321.5,386.8c5.7,3.3,11.3,6.3,16.9,9.1c-10.1,5-20,9.1-29.2,12.4c-1.9-9.6-3.2-20.2-3.9-31.5
				C310.4,380.1,315.8,383.5,321.5,386.8z"/>
			<path class="st0" d="M309.1,306.9c-1.9,9.6-3.2,20.2-3.9,31.5c-9.4,6.3-17.9,12.8-25.3,19.1c-4.8-4.1-9.1-8.2-12.8-12.3
				c0.7-0.6,1.2-1.3,1.6-2.1c2.3-4,1-9.2-3.1-11.5c-3-1.7-6.6-1.4-9.2,0.5c-6.9-10.2-9.2-19.1-5.7-25.3
				C256.9,296.1,280,296.9,309.1,306.9z"/>
			<path class="st0" d="M305.2,376.7c0.8,11.2,2.1,21.9,3.9,31.5c-29.1,10-52.2,10.8-58.4,0c-6.2-10.8,5.9-30.5,29.2-50.6
				C287.3,363.9,295.9,370.4,305.2,376.7z"/>
			<path class="st0" d="M305.2,338.4c-0.4,6.2-0.6,12.6-0.6,19.1c0,6.5,0.2,12.9,0.6,19.1c-9.4-6.2-17.9-12.8-25.3-19.1
				C287.3,351.1,295.9,344.6,305.2,338.4z"/>
		</g>
	</g>
	<g>
		<defs>
			<path id="SVGID_3_" d="M396.8,357.6c23.3-20.2,35.5-39.8,29.2-50.6c-3.5-6.1-12.5-8.5-24.9-7.7c0.2,3.1-1.3,6.4-4.2,8
				c-4.1,2.3-9.2,1-11.6-3.1c-0.4-0.8-0.8-1.5-0.9-2.2c-5.3,1.3-11,2.9-17,5h0.1c-5.9-30.3-16.8-50.6-29.2-50.6S315,276.7,309.1,307
				c-29.1-10-52.2-10.8-58.4-0.1c-3.5,6.1-1.2,15.1,5.7,25.3c2.6-1.9,6.2-2.2,9.2-0.5c4.1,2.3,5.4,7.5,3.1,11.5
				c-0.4,0.8-1,1.5-1.6,2.1c3.8,4,8,8.2,12.8,12.3c-23.2,20.2-35.4,39.8-29.2,50.6c6.2,10.8,29.3,10.1,58.4,0l0-0.1
				c5.9,30.3,16.8,50.6,29.2,50.6c7,0,13.6-6.5,19-17.7c-2.8-1.4-4.8-4.3-4.8-7.7c0-4.6,3.8-8.4,8.4-8.4c0.8,0,1.6,0.1,2.4,0.4
				c1.6-5.2,3-11,4.2-17.2h0.1c29.1,10.1,52.2,10.8,58.4,0C432.4,397.4,420.1,377.8,396.8,357.6"/>
		</defs>
		<clipPath id="SVGID_4_">
			<use xlink:href="#SVGID_3_"  style="overflow:visible;"/>
		</clipPath>
		<g class="st6">
			<line class="st2" x1="81.9" y1="73.5" x2="465.9" y2="457.5"/>
			<line class="st2" x1="136.4" y1="154.5" x2="520.4" y2="538.5"/>
			<line class="st2" x1="109.1" y1="154.1" x2="493.1" y2="538.1"/>
			<line class="st2" x1="163.5" y1="235.1" x2="547.5" y2="619.1"/>
			<line class="st2" x1="171.9" y1="57" x2="555.9" y2="441"/>
			<line class="st2" x1="226.4" y1="138" x2="610.4" y2="522"/>
			<line class="st2" x1="199.1" y1="137.6" x2="583.1" y2="521.6"/>
			<line class="st2" x1="199.1" y1="165.6" x2="583.1" y2="549.6"/>
			<line class="st2" x1="55.4" y1="148.7" x2="439.4" y2="532.7"/>
			<line class="st2" x1="109.8" y1="229.7" x2="493.8" y2="613.7"/>
			<line class="st2" x1="82.6" y1="229.3" x2="466.6" y2="613.3"/>
		</g>
	</g>
	<g id="Layer_1_2_">
		<g>
			<g>
				<g id="XMLID_2_">
					<g>
						<path class="st3" d="M256.4,332.2c-6.9-10.2-9.2-19.1-5.7-25.3c6.2-10.8,29.3-10,58.4,0c9.2,3.2,19.1,7.4,29.2,12.4
							c5.5,2.8,11.2,5.8,16.9,9.1c5.7,3.3,11.1,6.7,16.3,10.1c9.4,6.2,17.9,12.8,25.4,19.1c23.2,20.2,35.5,39.8,29.2,50.6
							c-6.2,10.8-29.3,10-58.4,0c-9.2-3.2-19.1-7.4-29.2-12.4c-5.5-2.8-11.2-5.8-16.9-9.1c-5.7-3.3-11.1-6.7-16.3-10.1
							c-9.4-6.2-17.9-12.8-25.4-19.1c-4.8-4.1-9.1-8.2-12.8-12.3"/>
						<path class="st4" d="M256.4,332.2c2.6-2,6.2-2.2,9.2-0.5c4,2.3,5.4,7.5,3.1,11.5c-0.4,0.8-1,1.5-1.6,2.1
							c-2.6,2.4-6.6,2.9-9.8,1c-4-2.3-5.4-7.5-3.1-11.5C254.7,333.7,255.5,332.9,256.4,332.2z"/>
						<path class="st3" d="M401.2,299.3c12.4-0.9,21.3,1.6,24.8,7.6c6.2,10.8-5.9,30.5-29.2,50.6c-7.4,6.4-15.9,12.9-25.4,19.1
							c-5.2,3.5-10.6,6.8-16.3,10.1s-11.3,6.3-16.9,9.1c-10.1,5-20,9.1-29.2,12.4c-29.1,10-52.2,10.8-58.4,0
							c-6.2-10.8,5.9-30.5,29.2-50.6c7.4-6.5,15.9-12.9,25.4-19.1c5.2-3.5,10.6-6.8,16.3-10c5.7-3.2,11.3-6.3,16.9-9.1
							c10.1-5,20-9.1,29.2-12.4c5.9-2.1,11.6-3.8,17-5"/>
						<path class="st4" d="M384.6,301.9c-0.8-3.5,0.7-7.4,4-9.3c4-2.3,9.2-1,11.5,3.1c0.7,1.1,1,2.3,1.1,3.5c0.2,3.1-1.3,6.3-4.2,8
							c-4,2.3-9.2,1-11.5-3.1C385.1,303.5,384.8,302.7,384.6,301.9z"/>
						<path class="st3" d="M357.4,441.1c-5.4,11.2-12,17.7-19,17.7c-12.5,0-23.4-20.3-29.2-50.6c-1.9-9.6-3.2-20.2-3.9-31.5
							c-0.4-6.2-0.6-12.6-0.6-19.1c0-6.5,0.2-13,0.6-19.1c0.8-11.2,2.1-21.9,3.9-31.5c5.8-30.3,16.7-50.6,29.2-50.6
							c12.5,0,23.4,20.3,29.2,50.6c1.9,9.6,3.2,20.2,3.9,31.5c0.4,6.2,0.6,12.6,0.6,19.1c0,6.5-0.2,12.9-0.6,19.1
							c-0.8,11.2-2.1,21.9-3.9,31.5c-1.2,6.2-2.6,11.9-4.2,17.2"/>
						<path class="st4" d="M363.4,425.4c3.5,1,6.1,4.3,6.1,8.1c0,4.6-3.8,8.4-8.4,8.4c-1.3,0-2.5-0.3-3.6-0.8
							c-2.9-1.3-4.8-4.3-4.8-7.6c0-4.7,3.8-8.4,8.4-8.4C361.9,425,362.7,425.2,363.4,425.4z"/>
					</g>
				</g>
			</g>
			<circle class="st4" cx="338.4" cy="357.5" r="16.9"/>
		</g>
		<path class="st5" d="M401.2,299.3c0.2,3.1-1.3,6.3-4.2,8c-4,2.3-9.2,1-11.5-3.1c-0.5-0.7-0.8-1.4-0.9-2.2
			C390.6,300.5,396.2,299.6,401.2,299.3z"/>
		<path class="st5" d="M400.1,295.7c0.7,1.1,1,2.3,1.1,3.5c-5,0.4-10.6,1.3-16.6,2.7c-0.8-3.5,0.7-7.4,4-9.3
			C392.6,290.3,397.8,291.7,400.1,295.7z"/>
		<path class="st5" d="M363.4,425.4c3.5,1,6.1,4.3,6.1,8.1c0,4.6-3.8,8.4-8.4,8.4c-1.3,0-2.5-0.3-3.6-0.8
			C359.7,436.6,361.6,431.3,363.4,425.4z"/>
		<path class="st5" d="M363.4,425.4c-1.8,5.9-3.8,11.2-6,15.8c-2.9-1.3-4.8-4.3-4.8-7.6c0-4.7,3.8-8.4,8.4-8.4
			C361.9,425,362.7,425.2,363.4,425.4z"/>
		<path class="st5" d="M265.6,331.7c4,2.3,5.4,7.5,3.1,11.5c-0.4,0.8-1,1.5-1.6,2.1c-4.3-4.5-7.8-8.9-10.6-13.1
			C259,330.2,262.6,329.9,265.6,331.7z"/>
		<path class="st5" d="M267.1,345.2c-2.6,2.4-6.6,2.9-9.8,1c-4-2.3-5.4-7.5-3.1-11.5c0.6-1,1.4-2,2.3-2.6
			C259.3,336.4,262.8,340.7,267.1,345.2z"/>
	</g>
</g>
</svg>
