<?xml version="1.0" encoding="utf-8"?>
<!-- Generator: Adobe Illustrator 21.0.0, SVG Export Plug-In . SVG Version: 6.00 Build 0)  -->
<svg version="1.1" id="Layer_1" xmlns="http://www.w3.org/2000/svg" xmlns:xlink="http://www.w3.org/1999/xlink" x="0px" y="0px"
	 viewBox="0 0 512 512" style="enable-background:new 0 0 512 512;" xml:space="preserve">
<style type="text/css">
	.st0{fill:#B8C6FF;}
	.st1{clip-path:url(#SVGID_2_);}
	.st2{fill:none;stroke:#FFFFFF;stroke-width:6;stroke-miterlimit:10;}
	.st3{fill:none;stroke:#8891BF;stroke-width:4;stroke-miterlimit:10;}
	.st4{fill:none;stroke:#232323;stroke-width:4;stroke-miterlimit:10;}
	.st5{fill:#8891BF;}
	.st6{clip-path:url(#SVGID_5_);}
	.st7{clip-path:url(#SVGID_6_);}
</style>
<g>
	<g id="Layer_2">
		<g>
			<path class="st0" d="M178.3,53.8c6.2,10.8-5.9,30.5-29.2,50.6c-7.4-6.5-15.9-12.9-25.3-19.1c-0.8-11.2-2.1-21.9-3.9-31.5
				c5.9-2.1,11.6-3.8,17-5c0.2,0.8,0.5,1.5,0.9,2.2c2.3,4,7.5,5.4,11.6,3.1c2.9-1.6,4.4-4.9,4.2-8C165.9,45.2,174.8,47.6,178.3,53.8
				z"/>
			<path class="st0" d="M149.2,104.4c23.2,20.2,35.5,39.8,29.2,50.6c-6.2,10.8-29.3,10.1-58.4,0c1.9-9.6,3.2-20.2,3.9-31.5
				C133.2,117.3,141.7,110.8,149.2,104.4z"/>
			<path class="st0" d="M123.8,85.3c9.4,6.2,17.9,12.8,25.3,19.1c-7.4,6.4-15.9,12.9-25.3,19.1c0.4-6.2,0.6-12.6,0.6-19.1
				S124.2,91.5,123.8,85.3z"/>
			<path class="st0" d="M123.8,85.3c0.4,6.2,0.6,12.6,0.6,19.1c0,6.5-0.2,12.9-0.6,19.1c-5.2,3.5-10.6,6.8-16.3,10.1
				c-5.7,3.3-11.3,6.3-16.9,9.1c-5.5-2.8-11.2-5.8-16.9-9.1c-5.7-3.3-11.1-6.7-16.3-10.1c-0.4-6.2-0.6-12.6-0.6-19.1
				c0-6.5,0.2-13,0.6-19.1c5.2-3.5,10.6-6.8,16.3-10c5.7-3.2,11.3-6.3,16.9-9.1c5.5,2.8,11.2,5.8,16.9,9.1
				C113.2,78.5,118.6,81.8,123.8,85.3z"/>
			<path class="st0" d="M119.9,53.8c1.9,9.6,3.2,20.2,3.9,31.5c-5.2-3.5-10.6-6.8-16.3-10.1s-11.3-6.3-16.9-9.1
				C100.8,61.1,110.6,57,119.9,53.8z"/>
			<path class="st0" d="M123.8,123.5c-0.8,11.2-2.1,21.9-3.9,31.5c-9.2-3.2-19.1-7.3-29.2-12.4c5.5-2.8,11.2-5.8,16.9-9.1
				C113.2,130.4,118.6,127,123.8,123.5z"/>
			<path class="st0" d="M119.9,155c-1.2,6.2-2.6,11.9-4.2,17.2c-0.8-0.2-1.6-0.4-2.4-0.4c-4.7,0-8.4,3.8-8.4,8.4
				c0,3.4,2,6.3,4.8,7.7c-5.4,11.2-12,17.7-19,17.7c-12.5,0-23.4-20.3-29.2-50.6c9.2-3.2,19.1-7.3,29.2-12.4
				C100.8,147.7,110.6,151.8,119.9,155z"/>
			<path class="st0" d="M90.7,3.2c12.5,0,23.4,20.3,29.2,50.6c-9.2,3.2-19.1,7.4-29.2,12.4c-10.1-5-20-9.1-29.2-12.4
				C67.3,23.5,78.2,3.2,90.7,3.2z"/>
			<path class="st0" d="M90.7,66.2c-5.5,2.8-11.2,5.8-16.9,9.1c-5.7,3.3-11.1,6.7-16.3,10c0.8-11.2,2.1-21.9,3.9-31.5
				C70.7,57,80.5,61.1,90.7,66.2z"/>
			<path class="st0" d="M73.8,133.7c5.7,3.3,11.3,6.3,16.9,9.1c-10.1,5-20,9.2-29.2,12.4c-1.9-9.6-3.2-20.2-3.9-31.5
				C62.7,127,68.1,130.4,73.8,133.7z"/>
			<path class="st0" d="M61.4,53.8c-1.9,9.6-3.2,20.2-3.9,31.5c-9.4,6.3-17.9,12.8-25.4,19.1c-4.8-4.1-9.1-8.2-12.8-12.3
				c0.7-0.6,1.2-1.3,1.6-2.1c2.3-4,1-9.2-3.1-11.5c-3-1.7-6.6-1.4-9.2,0.5C1.8,68.8-0.5,59.9,3,53.7C9.2,43,32.3,43.7,61.4,53.8z"/>
			<path class="st0" d="M57.5,123.5c0.8,11.2,2.1,21.9,3.9,31.5C32.3,165.1,9.2,165.8,3,155c-6.2-10.8,5.9-30.5,29.2-50.6
				C39.6,110.8,48.1,117.3,57.5,123.5z"/>
			<path class="st0" d="M57.5,85.3c-0.4,6.2-0.6,12.6-0.6,19.1c0,6.5,0.2,12.9,0.6,19.1c-9.4-6.2-17.9-12.8-25.4-19.1
				C39.6,98,48.1,91.5,57.5,85.3z"/>
		</g>
	</g>
	<g>
		<defs>
			<path id="SVGID_1_" d="M149.1,104.5c23.3-20.2,35.5-39.8,29.2-50.6c-3.5-6.1-12.5-8.5-24.9-7.7c0.2,3.1-1.3,6.4-4.2,8
				c-4.1,2.3-9.2,1-11.6-3.1c-0.4-0.8-0.8-1.5-0.9-2.2c-5.3,1.3-11,2.9-16.9,5h0.1c-5.8-30.3-16.8-50.6-29.2-50.6
				S67.3,23.6,61.4,53.9C32.3,43.8,9.2,43.1,3,53.8c-3.5,6.1-1.2,15.1,5.7,25.3c2.6-1.9,6.2-2.2,9.2-0.5C22,80.9,23.3,86,21,90.1
				c-0.4,0.8-1,1.5-1.6,2.1c3.8,4,8,8.2,12.8,12.3C8.9,124.7-3.2,144.3,3,155.1c6.2,10.8,29.3,10,58.4,0l0-0.1
				c5.8,30.3,16.8,50.6,29.2,50.6c7,0,13.6-6.5,19-17.7c-2.8-1.4-4.8-4.3-4.8-7.7c0-4.7,3.8-8.4,8.4-8.4c0.8,0,1.7,0.2,2.4,0.4
				c1.6-5.2,3-11,4.2-17.2h0.1c29.1,10,52.2,10.8,58.4,0C184.6,144.3,172.4,124.7,149.1,104.5"/>
		</defs>
		<clipPath id="SVGID_2_">
			<use xlink:href="#SVGID_1_"  style="overflow:visible;"/>
		</clipPath>
		<g class="st1">
			<line class="st2" x1="-165.8" y1="-179.6" x2="218.2" y2="204.4"/>
			<line class="st2" x1="-111.4" y1="-98.6" x2="272.6" y2="285.4"/>
			<line class="st2" x1="-138.6" y1="-99" x2="245.4" y2="285"/>
			<line class="st2" x1="-84.2" y1="-18" x2="299.8" y2="366"/>
			<line class="st2" x1="-75.8" y1="-196.1" x2="308.2" y2="187.9"/>
			<line class="st2" x1="-21.4" y1="-115.1" x2="362.6" y2="268.9"/>
			<line class="st2" x1="-48.6" y1="-115.5" x2="335.4" y2="268.5"/>
			<line class="st2" x1="-48.6" y1="-87.6" x2="335.4" y2="296.4"/>
			<line class="st2" x1="-192.3" y1="-104.4" x2="191.7" y2="279.6"/>
			<line class="st2" x1="-137.9" y1="-23.4" x2="246.1" y2="360.6"/>
			<line class="st2" x1="-165.1" y1="-23.8" x2="218.9" y2="360.2"/>
		</g>
	</g>
	<g id="Layer_1_1_">
		<g>
			<g>
				<g id="XMLID_1_">
					<g>
						<path class="st3" d="M8.7,79.1C1.8,68.9-0.5,59.9,3,53.8c6.2-10.8,29.3-10,58.4,0c9.2,3.2,19.1,7.4,29.2,12.4
							c5.5,2.8,11.2,5.8,16.9,9.1c5.7,3.3,11.1,6.7,16.3,10.1c9.4,6.2,17.9,12.8,25.3,19.1c23.2,20.2,35.5,39.8,29.2,50.6
							c-6.2,10.8-29.3,10-58.4,0c-9.2-3.2-19.1-7.3-29.2-12.4c-5.5-2.8-11.2-5.8-16.9-9.1c-5.7-3.3-11.1-6.7-16.3-10.1
							c-9.4-6.2-17.9-12.8-25.4-19.1c-4.8-4.1-9.1-8.2-12.8-12.3"/>
						<path class="st4" d="M8.7,79.1c2.6-2,6.2-2.2,9.2-0.5c4,2.3,5.4,7.5,3.1,11.5c-0.5,0.8-1,1.5-1.6,2.1c-2.6,2.4-6.6,2.9-9.8,1
							c-4-2.3-5.4-7.5-3.1-11.5C7,80.6,7.8,79.7,8.7,79.1z"/>
						<path class="st3" d="M153.5,46.1c12.4-0.9,21.3,1.6,24.8,7.6c6.2,10.8-5.9,30.5-29.2,50.6c-7.4,6.4-15.9,12.9-25.3,19.1
							c-5.2,3.5-10.6,6.8-16.3,10.1c-5.7,3.3-11.3,6.3-16.9,9.1c-10.1,5-20,9.2-29.2,12.4c-29.1,10-52.2,10.8-58.4,0
							c-6.2-10.8,5.9-30.5,29.2-50.6C39.5,98,48,91.6,57.4,85.4c5.2-3.5,10.6-6.8,16.3-10c5.7-3.2,11.3-6.3,16.9-9.1
							c10.1-5,20-9.1,29.2-12.4c5.9-2.1,11.6-3.8,17-5"/>
						<path class="st4" d="M136.9,48.8c-0.8-3.5,0.7-7.4,4-9.3c4-2.3,9.2-1,11.5,3.1c0.7,1.1,1,2.3,1.1,3.5c0.2,3.1-1.3,6.3-4.2,8
							c-4.1,2.3-9.2,1-11.6-3.1C137.4,50.3,137.1,49.6,136.9,48.8z"/>
						<path class="st3" d="M109.7,188c-5.4,11.2-12,17.7-19,17.7c-12.5,0-23.4-20.3-29.2-50.6c-1.9-9.6-3.2-20.2-3.9-31.5
							c-0.4-6.2-0.6-12.6-0.6-19.1c0-6.5,0.2-13,0.6-19.1c0.8-11.2,2.1-21.9,3.9-31.5C67.3,23.5,78.1,3.2,90.7,3.2
							c12.5,0,23.4,20.3,29.2,50.6c1.9,9.6,3.2,20.2,3.9,31.5c0.4,6.2,0.6,12.6,0.6,19.1c0,6.5-0.2,12.9-0.6,19.1
							c-0.8,11.2-2.1,21.9-3.9,31.5c-1.2,6.2-2.6,11.9-4.2,17.2"/>
						<path class="st4" d="M115.7,172.3c3.5,1.1,6.1,4.3,6.1,8.1c0,4.7-3.8,8.4-8.4,8.4c-1.3,0-2.5-0.3-3.6-0.8
							c-2.8-1.3-4.8-4.3-4.8-7.7c0-4.7,3.8-8.4,8.4-8.4C114.1,171.9,115,172.1,115.7,172.3z"/>
					</g>
				</g>
			</g>
			<circle class="st4" cx="90.7" cy="104.4" r="16.9"/>
		</g>
		<path class="st5" d="M153.5,46.1c0.2,3.1-1.3,6.3-4.2,8c-4.1,2.3-9.2,1-11.6-3.1c-0.4-0.7-0.8-1.4-0.9-2.2
			C142.9,47.3,148.5,46.5,153.5,46.1z"/>
		<path class="st5" d="M152.4,42.6c0.7,1.1,1,2.3,1.1,3.5c-5,0.4-10.6,1.3-16.6,2.7c-0.8-3.5,0.7-7.4,4-9.3
			C144.9,37.1,150.1,38.6,152.4,42.6z"/>
		<path class="st5" d="M115.7,172.3c3.5,1.1,6.1,4.3,6.1,8.1c0,4.7-3.8,8.4-8.4,8.4c-1.3,0-2.5-0.3-3.6-0.8
			C112,183.5,113.9,178.2,115.7,172.3z"/>
		<path class="st5" d="M115.7,172.3c-1.8,5.9-3.8,11.2-6,15.8c-2.8-1.3-4.8-4.3-4.8-7.7c0-4.7,3.8-8.4,8.4-8.4
			C114.1,171.9,115,172.1,115.7,172.3z"/>
		<path class="st5" d="M17.9,78.5c4,2.3,5.4,7.5,3.1,11.5c-0.5,0.8-1,1.5-1.6,2.1c-4.3-4.5-7.8-8.9-10.6-13.1
			C11.3,77.1,14.9,76.8,17.9,78.5z"/>
		<path class="st5" d="M19.3,92.1c-2.6,2.4-6.6,2.9-9.8,1c-4-2.3-5.4-7.5-3.1-11.5c0.6-1,1.4-2,2.3-2.6
			C11.5,83.3,15.1,87.6,19.3,92.1z"/>
	</g>
</g>
<g>
	<g id="Layer_2_1_">
		<g>
			<path class="st0" d="M508.6,357.6c6.2,10.8-5.9,30.4-29.2,50.6c-7.4-6.5-15.9-12.9-25.3-19.1c-0.8-11.2-2.1-21.9-3.9-31.5
				c5.9-2.1,11.6-3.8,17-5c0.1,0.8,0.5,1.5,0.9,2.2c2.3,4,7.5,5.4,11.6,3.1c2.9-1.6,4.4-4.9,4.2-8
				C496.1,349.1,505.1,351.5,508.6,357.6z"/>
			<path class="st0" d="M479.4,408.2c23.2,20.2,35.5,39.8,29.2,50.6c-6.2,10.8-29.3,10-58.4,0c1.9-9.6,3.2-20.2,3.9-31.5
				C463.4,421.1,472,414.6,479.4,408.2z"/>
			<path class="st0" d="M454.1,389.1c9.4,6.2,17.9,12.8,25.4,19.1c-7.4,6.4-15.9,12.9-25.4,19.1c0.4-6.2,0.6-12.6,0.6-19.1
				C454.7,401.7,454.4,395.3,454.1,389.1z"/>
			<path class="st0" d="M454.1,389.1c0.4,6.2,0.6,12.6,0.6,19.1s-0.2,12.9-0.6,19.1c-5.2,3.4-10.6,6.8-16.3,10.1
				c-5.7,3.3-11.3,6.3-16.9,9.1c-5.5-2.8-11.2-5.8-16.9-9.1c-5.7-3.3-11.1-6.7-16.3-10.1c-0.4-6.2-0.6-12.6-0.6-19.1
				s0.2-13,0.6-19.1c5.2-3.5,10.6-6.8,16.3-10.1c5.7-3.2,11.3-6.3,16.9-9.1c5.5,2.8,11.2,5.8,16.9,9.1
				C443.5,382.4,448.9,385.7,454.1,389.1z"/>
			<path class="st0" d="M450.2,357.6c1.9,9.6,3.2,20.2,3.9,31.5c-5.2-3.5-10.6-6.8-16.3-10.1c-5.7-3.3-11.3-6.3-16.9-9.1
				C431,365,440.9,360.8,450.2,357.6z"/>
			<path class="st0" d="M454.1,427.4c-0.8,11.2-2.1,21.9-3.9,31.5c-9.2-3.2-19.1-7.4-29.2-12.4c5.5-2.8,11.2-5.8,16.9-9.1
				C443.5,434.2,448.9,430.8,454.1,427.4z"/>
			<path class="st0" d="M450.2,458.9c-1.2,6.1-2.6,11.9-4.2,17.2c-0.8-0.2-1.6-0.4-2.4-0.4c-4.7,0-8.4,3.8-8.4,8.4
				c0,3.4,2,6.3,4.8,7.7c-5.4,11.2-12,17.7-19,17.7c-12.5,0-23.4-20.3-29.2-50.6c9.2-3.2,19.1-7.4,29.2-12.4
				C431,451.5,440.9,455.6,450.2,458.9z"/>
			<path class="st0" d="M420.9,307c12.5,0,23.4,20.3,29.2,50.6c-9.2,3.2-19.1,7.4-29.2,12.4c-10.1-5-20-9.1-29.2-12.4
				C397.5,327.3,408.5,307,420.9,307z"/>
			<path class="st0" d="M420.9,370c-5.5,2.8-11.2,5.8-16.9,9.1c-5.7,3.3-11.1,6.7-16.3,10.1c0.8-11.2,2.1-21.9,3.9-31.5
				C401,360.8,410.8,365,420.9,370z"/>
			<path class="st0" d="M404,437.5c5.7,3.3,11.3,6.3,16.9,9.1c-10.1,5-20,9.2-29.2,12.4c-1.9-9.6-3.2-20.2-3.9-31.5
				C392.9,430.8,398.3,434.2,404,437.5z"/>
			<path class="st0" d="M391.7,357.6c-1.9,9.6-3.2,20.2-3.9,31.5c-9.4,6.3-17.9,12.8-25.4,19.1c-4.8-4.1-9.1-8.2-12.8-12.3
				c0.7-0.6,1.2-1.3,1.6-2.1c2.3-4.1,1-9.2-3.1-11.6c-3-1.7-6.6-1.4-9.2,0.5c-6.9-10.2-9.2-19.1-5.7-25.3
				C339.5,346.8,362.6,347.6,391.7,357.6z"/>
			<path class="st0" d="M387.8,427.4c0.8,11.2,2.1,21.9,3.9,31.5c-29.1,10-52.2,10.8-58.4,0c-6.2-10.8,5.9-30.5,29.2-50.6
				C369.8,414.6,378.4,421.1,387.8,427.4z"/>
			<path class="st0" d="M387.8,389.1c-0.4,6.2-0.6,12.6-0.6,19.1s0.2,12.9,0.6,19.1c-9.4-6.2-17.9-12.8-25.4-19.1
				C369.8,401.8,378.4,395.3,387.8,389.1z"/>
		</g>
	</g>
	<g>
		<defs>
			<path id="SVGID_4_" d="M479.3,408.3c23.3-20.2,35.5-39.8,29.2-50.6c-3.5-6.1-12.5-8.5-24.9-7.7c0.2,3.1-1.3,6.4-4.2,8
				c-4.1,2.3-9.2,1-11.6-3.1c-0.4-0.8-0.8-1.5-0.9-2.2c-5.3,1.3-11,2.9-17,5h0.1c-5.9-30.3-16.8-50.6-29.2-50.6
				s-23.4,20.3-29.2,50.6c-29.1-10-52.2-10.8-58.4-0.1c-3.5,6.1-1.2,15.1,5.7,25.3c2.6-2,6.2-2.2,9.2-0.5c4,2.3,5.4,7.5,3.1,11.5
				c-0.4,0.8-1,1.5-1.6,2.1c3.8,4,8,8.2,12.8,12.3c-23.2,20.2-35.4,39.8-29.2,50.6c6.2,10.8,29.3,10,58.4,0l0-0.1
				c5.9,30.3,16.8,50.6,29.2,50.6c7,0,13.6-6.5,19-17.7c-2.8-1.4-4.8-4.3-4.8-7.6c0-4.7,3.8-8.4,8.4-8.4c0.8,0,1.6,0.2,2.4,0.4
				c1.6-5.2,3-11,4.2-17.2h0.1c29.1,10,52.2,10.8,58.4,0S502.7,428.5,479.3,408.3"/>
		</defs>
		<clipPath id="SVGID_5_">
			<use xlink:href="#SVGID_4_"  style="overflow:visible;"/>
		</clipPath>
		<g class="st6">
			<line class="st2" x1="164.5" y1="124.2" x2="548.5" y2="508.2"/>
			<line class="st2" x1="218.9" y1="205.2" x2="602.9" y2="589.2"/>
			<line class="st2" x1="191.7" y1="204.8" x2="575.7" y2="588.8"/>
			<line class="st2" x1="246.1" y1="285.8" x2="630.1" y2="669.8"/>
			<line class="st2" x1="254.5" y1="107.7" x2="638.5" y2="491.7"/>
			<line class="st2" x1="308.9" y1="188.7" x2="692.9" y2="572.7"/>
			<line class="st2" x1="281.7" y1="188.3" x2="665.7" y2="572.3"/>
			<line class="st2" x1="281.7" y1="216.3" x2="665.7" y2="600.3"/>
			<line class="st2" x1="138" y1="199.4" x2="522" y2="583.4"/>
			<line class="st2" x1="192.4" y1="280.4" x2="576.4" y2="664.4"/>
			<line class="st2" x1="165.2" y1="280" x2="549.2" y2="664"/>
		</g>
	</g>
	<g id="Layer_1_2_">
		<g>
			<g>
				<g id="XMLID_2_">
					<g>
						<path class="st3" d="M338.9,382.9c-6.9-10.2-9.2-19.1-5.7-25.3c6.2-10.8,29.3-10.1,58.4,0c9.2,3.2,19.1,7.4,29.2,12.4
							c5.5,2.8,11.2,5.8,16.9,9.1c5.7,3.3,11.1,6.7,16.3,10.1c9.4,6.2,17.9,12.8,25.4,19.1c23.2,20.2,35.5,39.8,29.2,50.6
							c-6.2,10.8-29.3,10.1-58.4,0c-9.2-3.2-19.1-7.3-29.2-12.4c-5.6-2.8-11.2-5.8-16.9-9.1c-5.7-3.3-11.1-6.7-16.3-10.1
							c-9.4-6.2-17.9-12.8-25.3-19.1c-4.8-4.1-9.1-8.2-12.8-12.3"/>
						<path class="st4" d="M338.9,382.9c2.6-2,6.2-2.2,9.2-0.5c4,2.3,5.4,7.5,3.1,11.5c-0.5,0.8-1.1,1.5-1.7,2.1
							c-2.6,2.4-6.6,2.9-9.8,1c-4.1-2.3-5.4-7.5-3.1-11.5C337.2,384.4,338,383.6,338.9,382.9z"/>
						<path class="st3" d="M483.8,350c12.4-0.9,21.3,1.6,24.8,7.6c6.2,10.8-5.9,30.4-29.2,50.6c-7.4,6.4-15.9,12.9-25.3,19.1
							c-5.2,3.4-10.6,6.8-16.3,10.1c-5.7,3.3-11.3,6.3-16.9,9.1c-10.1,5-20,9.2-29.2,12.4c-29.1,10.1-52.2,10.8-58.4,0
							c-6.2-10.8,5.9-30.4,29.2-50.6c7.4-6.4,15.9-12.9,25.4-19.1c5.2-3.4,10.6-6.8,16.3-10c5.7-3.2,11.3-6.3,16.9-9.1
							c10.1-5,20-9.1,29.2-12.4c5.9-2.1,11.6-3.8,17-5"/>
						<path class="st4" d="M467.1,352.6c-0.8-3.5,0.7-7.4,4-9.3c4-2.3,9.2-1,11.5,3.1c0.7,1.1,1,2.3,1.1,3.5c0.2,3.1-1.3,6.3-4.2,8
							c-4.1,2.3-9.2,1-11.6-3.1C467.6,354.2,467.3,353.4,467.1,352.6z"/>
						<path class="st3" d="M440,491.8c-5.4,11.2-12,17.7-19,17.7c-12.5,0-23.4-20.3-29.2-50.6c-1.9-9.6-3.2-20.2-3.9-31.5
							c-0.4-6.2-0.6-12.6-0.6-19.1s0.2-13,0.6-19.1c0.8-11.2,2.1-21.9,3.9-31.5c5.9-30.3,16.7-50.6,29.2-50.6s23.4,20.3,29.2,50.6
							c1.9,9.6,3.2,20.2,3.9,31.5c0.4,6.2,0.6,12.6,0.6,19.1s-0.2,12.9-0.6,19.1c-0.8,11.2-2.1,21.9-3.9,31.5
							c-1.2,6.1-2.6,11.9-4.2,17.2"/>
						<path class="st4" d="M446,476.1c3.5,1,6.1,4.3,6.1,8.1c0,4.7-3.8,8.4-8.4,8.4c-1.3,0-2.5-0.3-3.6-0.8
							c-2.9-1.4-4.8-4.3-4.8-7.7c0-4.6,3.8-8.4,8.4-8.4C444.4,475.7,445.2,475.9,446,476.1z"/>
					</g>
				</g>
			</g>
			<circle class="st4" cx="420.9" cy="408.2" r="16.9"/>
		</g>
		<path class="st5" d="M483.8,350c0.2,3.1-1.3,6.3-4.2,8c-4.1,2.3-9.2,1-11.6-3.1c-0.4-0.7-0.8-1.4-0.9-2.2
			C473.1,351.2,478.7,350.3,483.8,350z"/>
		<path class="st5" d="M482.6,346.4c0.7,1.1,1,2.3,1.1,3.5c-5,0.4-10.6,1.3-16.6,2.7c-0.8-3.5,0.7-7.4,4-9.3
			C475.1,341,480.3,342.4,482.6,346.4z"/>
		<path class="st5" d="M446,476.1c3.5,1,6.1,4.3,6.1,8.1c0,4.7-3.8,8.4-8.4,8.4c-1.3,0-2.5-0.3-3.6-0.8
			C442.2,487.3,444.2,482,446,476.1z"/>
		<path class="st5" d="M446,476.1c-1.8,5.9-3.8,11.2-6,15.8c-2.8-1.4-4.8-4.3-4.8-7.7c0-4.6,3.8-8.4,8.4-8.4
			C444.4,475.7,445.2,475.9,446,476.1z"/>
		<path class="st5" d="M348.2,382.4c4,2.3,5.4,7.5,3.1,11.5c-0.5,0.8-1.1,1.5-1.7,2.1c-4.3-4.5-7.8-8.9-10.6-13.1
			C341.6,380.9,345.2,380.6,348.2,382.4z"/>
		<path class="st5" d="M349.6,395.9c-2.6,2.4-6.6,2.9-9.8,1.1c-4-2.3-5.4-7.5-3.1-11.6c0.6-1,1.4-1.9,2.3-2.6
			C341.8,387.1,345.3,391.4,349.6,395.9z"/>
	</g>
</g>
<g>
	<g id="Layer_2_2_">
		<g>
			<path class="st0" d="M344,205.4c6.2,10.8-5.9,30.4-29.2,50.6c-7.4-6.5-15.9-12.9-25.4-19.1c-0.8-11.2-2.1-21.9-3.9-31.5
				c5.9-2.1,11.6-3.8,17-5c0.1,0.8,0.4,1.5,0.9,2.2c2.3,4.1,7.5,5.4,11.5,3.1c2.9-1.6,4.4-4.9,4.2-8
				C331.6,196.8,340.5,199.2,344,205.4z"/>
			<path class="st0" d="M314.9,256c23.2,20.2,35.5,39.8,29.2,50.6c-6.2,10.8-29.3,10-58.4,0c1.9-9.6,3.2-20.2,3.9-31.5
				C298.9,268.9,307.4,262.4,314.9,256z"/>
			<path class="st0" d="M289.5,236.9c9.4,6.2,17.9,12.8,25.4,19.1c-7.4,6.4-15.9,12.9-25.4,19.1c0.4-6.2,0.6-12.6,0.6-19.1
				C290.1,249.5,289.9,243.1,289.5,236.9z"/>
			<path class="st0" d="M289.5,236.9c0.4,6.2,0.6,12.6,0.6,19.1c0,6.5-0.2,12.9-0.6,19.1c-5.2,3.5-10.6,6.8-16.3,10.1
				c-5.7,3.3-11.3,6.3-16.9,9.1c-5.6-2.8-11.2-5.8-16.9-9.1c-5.7-3.3-11.1-6.7-16.3-10.1c-0.4-6.2-0.6-12.6-0.6-19.1
				c0-6.5,0.2-13,0.6-19.1c5.2-3.5,10.6-6.8,16.3-10.1c5.7-3.2,11.3-6.3,16.9-9.1c5.5,2.8,11.2,5.8,16.9,9.1
				C278.9,230.1,284.3,233.4,289.5,236.9z"/>
			<path class="st0" d="M285.6,205.4c1.9,9.6,3.2,20.2,3.9,31.5c-5.2-3.5-10.6-6.8-16.3-10.1c-5.7-3.3-11.3-6.3-16.9-9.1
				C266.5,212.7,276.3,208.6,285.6,205.4z"/>
			<path class="st0" d="M289.5,275.1c-0.8,11.2-2.1,21.9-3.9,31.5c-9.2-3.2-19.1-7.4-29.2-12.4c5.5-2.8,11.2-5.8,16.9-9.1
				C278.9,282,284.3,278.6,289.5,275.1z"/>
			<path class="st0" d="M285.6,306.6c-1.2,6.1-2.6,11.9-4.2,17.2c-0.8-0.2-1.6-0.4-2.4-0.4c-4.6,0-8.4,3.8-8.4,8.4
				c0,3.4,2,6.3,4.8,7.6c-5.4,11.2-12,17.7-19,17.7c-12.5,0-23.4-20.3-29.2-50.6c9.2-3.2,19.1-7.4,29.2-12.4
				C266.5,299.3,276.3,303.4,285.6,306.6z"/>
			<path class="st0" d="M256.4,154.8c12.4,0,23.4,20.3,29.2,50.6c-9.2,3.2-19.1,7.3-29.2,12.4c-10.1-5-20-9.2-29.3-12.4
				C233,175.1,243.9,154.8,256.4,154.8z"/>
			<path class="st0" d="M256.4,217.8c-5.6,2.8-11.2,5.8-16.9,9.1c-5.7,3.3-11.1,6.7-16.3,10.1c0.8-11.2,2.1-21.9,3.9-31.5
				C236.4,208.6,246.2,212.7,256.4,217.8z"/>
			<path class="st0" d="M239.5,285.2c5.7,3.3,11.3,6.3,16.9,9.1c-10.1,5-20,9.1-29.3,12.4c-1.9-9.6-3.2-20.2-3.9-31.5
				C228.4,278.6,233.8,282,239.5,285.2z"/>
			<path class="st0" d="M227.1,205.4c-1.9,9.6-3.2,20.2-3.9,31.5c-9.4,6.3-17.9,12.8-25.4,19.1c-4.8-4.1-9.1-8.2-12.8-12.3
				c0.7-0.6,1.2-1.3,1.6-2.1c2.3-4,1-9.2-3.1-11.5c-3-1.7-6.6-1.4-9.2,0.5c-6.9-10.2-9.2-19.1-5.7-25.3
				C174.9,194.6,198,195.3,227.1,205.4z"/>
			<path class="st0" d="M223.2,275.1c0.8,11.2,2.1,21.9,3.9,31.5c-29.1,10-52.2,10.8-58.4,0c-6.2-10.8,5.9-30.5,29.2-50.6
				C205.3,262.4,213.8,268.9,223.2,275.1z"/>
			<path class="st0" d="M223.2,236.9c-0.4,6.2-0.6,12.6-0.6,19.1c0,6.5,0.2,12.9,0.6,19.1c-9.4-6.2-17.9-12.8-25.4-19.1
				C205.3,249.5,213.8,243.1,223.2,236.9z"/>
		</g>
	</g>
	<g>
		<defs>
			<path id="SVGID_3_" d="M314.8,256.1c23.3-20.2,35.5-39.8,29.2-50.6c-3.5-6.1-12.5-8.5-24.9-7.7c0.2,3.2-1.3,6.4-4.2,8
				c-4.1,2.3-9.2,1-11.6-3.1c-0.4-0.8-0.8-1.5-0.9-2.2c-5.3,1.3-11,2.9-17,5h0.1c-5.9-30.3-16.8-50.6-29.2-50.6
				s-23.4,20.3-29.2,50.6c-29.1-10-52.2-10.8-58.4-0.1c-3.5,6.1-1.2,15.1,5.7,25.3c2.6-1.9,6.2-2.2,9.2-0.5
				c4.1,2.3,5.4,7.5,3.1,11.5c-0.4,0.8-1,1.5-1.6,2.1c3.8,4,8,8.2,12.8,12.3c-23.2,20.2-35.4,39.8-29.2,50.6
				c6.2,10.8,29.3,10,58.4,0l0-0.1c5.9,30.3,16.8,50.6,29.2,50.6c7,0,13.6-6.5,19-17.7c-2.8-1.4-4.8-4.3-4.8-7.6
				c0-4.7,3.8-8.4,8.4-8.4c0.8,0,1.6,0.2,2.4,0.4c1.6-5.2,3-11,4.2-17.2h0.1c29.1,10,52.2,10.8,58.4,0
				C350.3,295.9,338.1,276.2,314.8,256.1"/>
		</defs>
		<clipPath id="SVGID_6_">
			<use xlink:href="#SVGID_3_"  style="overflow:visible;"/>
		</clipPath>
		<g class="st7">
			<line class="st2" x1="-0.1" y1="-28" x2="383.9" y2="356"/>
			<line class="st2" x1="54.4" y1="53" x2="438.4" y2="437"/>
			<line class="st2" x1="27.1" y1="52.6" x2="411.1" y2="436.6"/>
			<line class="st2" x1="81.5" y1="133.6" x2="465.5" y2="517.6"/>
			<line class="st2" x1="89.9" y1="-44.5" x2="473.9" y2="339.5"/>
			<line class="st2" x1="144.4" y1="36.5" x2="528.4" y2="420.5"/>
			<line class="st2" x1="117.1" y1="36.1" x2="501.1" y2="420.1"/>
			<line class="st2" x1="117.1" y1="64" x2="501.1" y2="448"/>
			<line class="st2" x1="-26.6" y1="47.2" x2="357.4" y2="431.2"/>
			<line class="st2" x1="27.8" y1="128.2" x2="411.8" y2="512.2"/>
			<line class="st2" x1="0.6" y1="127.8" x2="384.6" y2="511.8"/>
		</g>
	</g>
	<g id="Layer_1_3_">
		<g>
			<g>
				<g id="XMLID_3_">
					<g>
						<path class="st3" d="M174.4,230.6c-6.9-10.2-9.2-19.1-5.7-25.3c6.2-10.8,29.3-10.1,58.4,0c9.2,3.2,19.1,7.3,29.3,12.4
							c5.5,2.8,11.2,5.8,16.9,9.1c5.7,3.3,11.1,6.7,16.3,10.1c9.4,6.2,17.9,12.8,25.4,19.1c23.2,20.2,35.5,39.8,29.2,50.6
							c-6.2,10.8-29.3,10-58.4,0c-9.2-3.2-19.1-7.4-29.2-12.4c-5.5-2.8-11.2-5.8-16.9-9.1c-5.7-3.3-11.1-6.7-16.3-10.1
							c-9.4-6.2-17.9-12.8-25.4-19.1c-4.8-4.1-9.1-8.2-12.8-12.3"/>
						<path class="st4" d="M174.4,230.6c2.6-2,6.2-2.2,9.2-0.5c4.1,2.3,5.4,7.5,3.1,11.5c-0.5,0.8-1.1,1.5-1.6,2.1
							c-2.6,2.4-6.6,2.9-9.8,1c-4-2.3-5.4-7.5-3.1-11.5C172.7,232.1,173.5,231.3,174.4,230.6z"/>
						<path class="st3" d="M319.2,197.7c12.4-0.9,21.3,1.6,24.8,7.7c6.2,10.8-5.9,30.4-29.2,50.6c-7.4,6.4-15.9,12.9-25.4,19.1
							c-5.2,3.5-10.6,6.8-16.3,10.1s-11.3,6.3-16.9,9.1c-10.1,5-20,9.1-29.2,12.4c-29.1,10-52.2,10.8-58.4,0
							c-6.2-10.8,5.9-30.5,29.2-50.6c7.4-6.5,15.9-12.9,25.4-19.1c5.2-3.4,10.6-6.8,16.3-10s11.3-6.3,16.9-9.1
							c10.1-5,20-9.1,29.2-12.4c5.9-2.1,11.6-3.8,17-5"/>
						<path class="st4" d="M302.6,200.3c-0.8-3.5,0.7-7.3,4-9.3c4-2.3,9.2-1,11.5,3.1c0.7,1.1,1,2.3,1.1,3.5c0.2,3.1-1.3,6.3-4.2,8
							c-4,2.3-9.2,1-11.5-3.1C303.1,201.9,302.8,201.2,302.6,200.3z"/>
						<path class="st3" d="M275.4,339.5c-5.4,11.2-12,17.7-19,17.7c-12.5,0-23.4-20.3-29.3-50.6c-1.9-9.6-3.2-20.2-3.9-31.5
							c-0.4-6.2-0.6-12.6-0.6-19.1c0-6.5,0.2-13,0.6-19.1c0.8-11.2,2.1-21.9,3.9-31.5c5.9-30.3,16.7-50.6,29.3-50.6
							c12.5,0,23.4,20.3,29.2,50.6c1.9,9.6,3.2,20.2,3.9,31.5c0.4,6.2,0.6,12.6,0.6,19.1c0,6.5-0.2,12.9-0.6,19.1
							c-0.8,11.2-2.1,21.9-3.9,31.5c-1.2,6.1-2.6,11.9-4.2,17.2"/>
						<path class="st4" d="M281.4,323.9c3.5,1,6.1,4.3,6.1,8.1c0,4.7-3.8,8.4-8.4,8.4c-1.3,0-2.5-0.3-3.6-0.8
							c-2.9-1.3-4.8-4.3-4.8-7.6c0-4.7,3.8-8.4,8.4-8.4C279.8,323.5,280.7,323.6,281.4,323.9z"/>
					</g>
				</g>
			</g>
			<circle class="st4" cx="256.4" cy="256" r="16.9"/>
		</g>
		<path class="st5" d="M319.2,197.7c0.2,3.2-1.3,6.3-4.2,8c-4,2.3-9.2,1-11.5-3.1c-0.5-0.7-0.8-1.4-0.9-2.2
			C308.6,198.9,314.2,198.1,319.2,197.7z"/>
		<path class="st5" d="M318.1,194.2c0.7,1.1,1,2.3,1.1,3.5c-5,0.4-10.6,1.3-16.6,2.7c-0.8-3.5,0.7-7.4,4-9.3
			C310.6,188.7,315.8,190.1,318.1,194.2z"/>
		<path class="st5" d="M281.4,323.9c3.5,1,6.1,4.3,6.1,8.1c0,4.7-3.8,8.4-8.4,8.4c-1.3,0-2.5-0.3-3.6-0.8
			C277.7,335,279.6,329.8,281.4,323.9z"/>
		<path class="st5" d="M281.4,323.9c-1.8,5.9-3.8,11.2-6,15.8c-2.9-1.4-4.8-4.3-4.8-7.7c0-4.6,3.8-8.4,8.4-8.4
			C279.8,323.5,280.7,323.6,281.4,323.9z"/>
		<path class="st5" d="M183.6,230.1c4.1,2.3,5.4,7.5,3.1,11.5c-0.5,0.8-1.1,1.5-1.6,2.1c-4.3-4.5-7.8-8.9-10.7-13.1
			C177,228.7,180.6,228.4,183.6,230.1z"/>
		<path class="st5" d="M185,243.7c-2.6,2.4-6.6,2.9-9.8,1.1c-4-2.3-5.4-7.5-3.1-11.6c0.6-1,1.4-1.9,2.3-2.6
			C177.2,234.8,180.8,239.2,185,243.7z"/>
	</g>
</g>
</svg>
