<?xml version="1.0" encoding="utf-8"?>
<!-- Generator: Adobe Illustrator 21.0.0, SVG Export Plug-In . SVG Version: 6.00 Build 0)  -->
<svg version="1.1" id="Layer_1" xmlns="http://www.w3.org/2000/svg" xmlns:xlink="http://www.w3.org/1999/xlink" x="0px" y="0px"
	 viewBox="0 0 512 512" style="enable-background:new 0 0 512 512;" xml:space="preserve">
<style type="text/css">
	.st0{fill:#B8C6FF;}
	.st1{fill:#8891BF;}
	.st2{fill:none;stroke:#8891BF;stroke-width:4;stroke-miterlimit:10;}
	.st3{fill:none;stroke:#232323;stroke-width:4;stroke-miterlimit:10;}
</style>
<g>
	<g>
		<g id="XMLID_1_">
			<g>
				<path class="st0" d="M372.9,188.5c8.3,14.4-7.9,40.6-39,67.5c-9.9-8.6-21.2-17.2-33.8-25.5c-1-15-2.8-29.2-5.2-42
					c7.9-2.8,15.5-5,22.6-6.7c0.2,1,0.6,2,1.2,3c3.1,5.4,10,7.2,15.4,4.1c3.9-2.2,5.9-6.5,5.6-10.7
					C356.3,177.1,368.2,180.3,372.9,188.5z"/>
				<path class="st0" d="M334,256c31,26.9,47.3,53.1,39,67.5c-8.3,14.4-39.1,13.4-77.9,0c2.5-12.8,4.3-27,5.2-42
					C312.7,273.2,324.1,264.5,334,256z"/>
				<path class="st1" d="M339.8,178.3c0.3,4.2-1.7,8.4-5.6,10.7c-5.4,3.1-12.3,1.3-15.4-4.1c-0.6-0.9-1-1.9-1.2-3
					C325.6,179.9,333.1,178.8,339.8,178.3z"/>
				<path class="st1" d="M338.3,173.6c0.9,1.5,1.3,3.1,1.5,4.7c-6.7,0.5-14.1,1.7-22.1,3.6c-1.1-4.7,0.9-9.8,5.3-12.4
					C328.3,166.3,335.2,168.2,338.3,173.6z"/>
				<path class="st0" d="M300.2,230.5c12.5,8.3,23.9,17,33.8,25.5c-9.9,8.5-21.2,17.2-33.8,25.5c0.5-8.3,0.8-16.8,0.8-25.5
					S300.7,238.8,300.2,230.5z"/>
				<path class="st0" d="M300.2,230.5c0.5,8.3,0.8,16.8,0.8,25.5s-0.3,17.2-0.8,25.5c-6.9,4.6-14.1,9.1-21.7,13.5
					c-7.6,4.4-15.1,8.4-22.5,12.1c-7.4-3.7-14.9-7.7-22.5-12.1c-7.6-4.4-14.8-8.9-21.7-13.5c-0.5-8.3-0.8-16.8-0.8-25.5
					c0-8.7,0.3-17.3,0.8-25.5c6.9-4.6,14.1-9.1,21.7-13.4s15.1-8.4,22.5-12.1c7.4,3.7,14.9,7.7,22.5,12.1S293.3,225.9,300.2,230.5z"
					/>
				<path class="st0" d="M295,188.5c2.5,12.8,4.3,27,5.2,42c-6.9-4.6-14.1-9.1-21.7-13.5s-15.1-8.4-22.5-12.1
					C269.5,198.3,282.6,192.8,295,188.5z"/>
				<path class="st0" d="M300.2,281.5c-1,15-2.8,29.2-5.2,42c-12.3-4.3-25.5-9.8-39-16.5c7.4-3.7,14.9-7.7,22.5-12.1
					C286.1,290.6,293.3,286.1,300.2,281.5z"/>
				<path class="st1" d="M289.4,346.5c4.7,1.4,8.1,5.7,8.1,10.8c0,6.2-5,11.2-11.2,11.2c-1.7,0-3.4-0.4-4.8-1.1
					C284.4,361.4,287,354.4,289.4,346.5z"/>
				<path class="st0" d="M295,323.5c-1.6,8.2-3.5,15.9-5.6,22.9c-1-0.3-2.1-0.5-3.2-0.5c-6.2,0-11.2,5-11.2,11.2
					c0,4.5,2.6,8.4,6.4,10.2c-7.2,14.9-16,23.6-25.4,23.6c-16.6,0-31.2-27.1-39-67.5c12.3-4.3,25.5-9.8,39-16.5
					C269.5,313.7,282.6,319.2,295,323.5z"/>
				<path class="st0" d="M256,121c16.6,0,31.2,27.1,39,67.5c-12.3,4.3-25.5,9.8-39,16.5c-13.5-6.7-26.6-12.2-39-16.5
					C224.8,148.1,239.4,121,256,121z"/>
				<path class="st1" d="M289.4,346.5c-2.4,7.9-5,14.9-8,21c-3.8-1.8-6.4-5.7-6.4-10.2c0-6.2,5-11.2,11.2-11.2
					C287.3,346,288.4,346.2,289.4,346.5z"/>
				<path class="st0" d="M256,205c-7.4,3.7-14.9,7.7-22.5,12.1s-14.8,8.9-21.7,13.4c1-15,2.8-29.2,5.2-42
					C229.4,192.8,242.5,198.3,256,205z"/>
				<path class="st0" d="M233.5,295c7.6,4.4,15.1,8.4,22.5,12.1c-13.5,6.7-26.6,12.2-39,16.5c-2.5-12.8-4.3-27-5.2-42
					C218.7,286.1,225.9,290.6,233.5,295z"/>
				<path class="st0" d="M217,188.5c-2.5,12.8-4.3,27-5.2,42c-12.5,8.4-23.9,17-33.8,25.5c-6.4-5.5-12.1-11-17.1-16.4
					c0.9-0.8,1.6-1.7,2.2-2.8c3.1-5.4,1.3-12.3-4.1-15.4c-4-2.3-8.8-1.9-12.3,0.7c-9.2-13.6-12.3-25.5-7.6-33.7
					C147.4,174.1,178.2,175.1,217,188.5z"/>
				<path class="st0" d="M211.8,281.5c1,15,2.8,29.2,5.2,42c-38.8,13.4-69.6,14.4-77.9,0c-8.3-14.4,7.9-40.6,38.9-67.5
					C187.9,264.5,199.3,273.2,211.8,281.5z"/>
				<path class="st0" d="M211.8,230.5c-0.5,8.3-0.8,16.8-0.8,25.5c0,8.7,0.3,17.2,0.8,25.5c-12.5-8.3-23.9-17-33.8-25.5
					C187.9,247.4,199.3,238.8,211.8,230.5z"/>
				<path class="st1" d="M159,221.5c5.4,3.1,7.2,10,4.1,15.4c-0.6,1.1-1.4,2-2.2,2.8c-5.7-6-10.4-11.9-14.2-17.5
					C150.2,219.6,155,219.2,159,221.5z"/>
				<path class="st1" d="M160.9,239.6c-3.5,3.2-8.8,3.9-13.1,1.4c-5.4-3.1-7.2-10-4.1-15.4c0.8-1.4,1.9-2.6,3.1-3.5
					C150.5,227.8,155.2,233.6,160.9,239.6z"/>
			</g>
			<g>
				<path class="st2" d="M146.7,222.2c-9.2-13.6-12.3-25.5-7.6-33.7c8.3-14.4,39.1-13.4,77.9,0c12.3,4.3,25.5,9.8,39,16.5
					c7.4,3.7,14.9,7.7,22.5,12.1s14.8,8.9,21.7,13.5c12.5,8.3,23.9,17,33.8,25.5c31,26.9,47.3,53.1,39,67.5
					c-8.3,14.4-39.1,13.4-77.9,0c-12.3-4.3-25.5-9.8-39-16.5c-7.4-3.7-14.9-7.7-22.5-12.1c-7.6-4.4-14.8-8.9-21.7-13.5
					c-12.5-8.3-23.9-17-33.8-25.5c-6.4-5.5-12.1-11-17.1-16.4"/>
				<path class="st3" d="M146.7,222.2c3.5-2.6,8.3-3,12.3-0.7c5.4,3.1,7.2,10,4.1,15.4c-0.6,1.1-1.4,2-2.2,2.8
					c-3.5,3.2-8.8,3.9-13.1,1.4c-5.4-3.1-7.2-10-4.1-15.4C144.4,224.2,145.5,223.1,146.7,222.2z"/>
				<path class="st2" d="M339.8,178.3c16.5-1.2,28.4,2.1,33.1,10.2c8.3,14.4-7.9,40.6-39,67.5c-9.9,8.5-21.2,17.2-33.8,25.5
					c-6.9,4.6-14.1,9.1-21.7,13.5c-7.6,4.4-15.1,8.4-22.5,12.1c-13.5,6.7-26.6,12.2-39,16.5c-38.8,13.4-69.6,14.4-77.9,0
					c-8.3-14.4,7.9-40.6,38.9-67.5c9.9-8.6,21.2-17.2,33.8-25.5c6.9-4.6,14.1-9.1,21.7-13.4s15.1-8.4,22.5-12.1
					c13.5-6.7,26.6-12.2,39-16.5c7.9-2.8,15.5-5,22.6-6.7"/>
				<path class="st3" d="M317.6,181.8c-1.1-4.7,0.9-9.8,5.3-12.4c5.4-3.1,12.3-1.3,15.4,4.1c0.9,1.5,1.3,3.1,1.5,4.7
					c0.3,4.2-1.7,8.4-5.6,10.7c-5.4,3.1-12.3,1.3-15.4-4.1C318.3,183.9,317.9,182.9,317.6,181.8z"/>
				<path class="st2" d="M281.4,367.4c-7.2,14.9-16,23.6-25.4,23.6c-16.6,0-31.2-27.1-39-67.5c-2.5-12.8-4.3-27-5.2-42
					c-0.5-8.3-0.8-16.8-0.8-25.5c0-8.7,0.3-17.3,0.8-25.5c1-15,2.8-29.2,5.2-42c7.8-40.4,22.3-67.5,39-67.5s31.2,27.1,39,67.5
					c2.5,12.8,4.3,27,5.2,42c0.5,8.3,0.8,16.8,0.8,25.5s-0.3,17.2-0.8,25.5c-1,15-2.8,29.2-5.2,42c-1.6,8.2-3.5,15.9-5.6,22.9"/>
				<path class="st3" d="M289.4,346.5c4.7,1.4,8.1,5.7,8.1,10.8c0,6.2-5,11.2-11.2,11.2c-1.7,0-3.4-0.4-4.8-1.1
					c-3.8-1.8-6.4-5.7-6.4-10.2c0-6.2,5-11.2,11.2-11.2C287.3,346,288.4,346.2,289.4,346.5z"/>
			</g>
		</g>
	</g>
	<circle class="st3" cx="256" cy="256" r="22.5"/>
</g>
</svg>
