<?xml version="1.0" encoding="utf-8"?>
<!-- Generator: Adobe Illustrator 21.0.0, SVG Export Plug-In . SVG Version: 6.00 Build 0)  -->
<svg version="1.1" id="Layer_1" xmlns="http://www.w3.org/2000/svg" xmlns:xlink="http://www.w3.org/1999/xlink" x="0px" y="0px"
	 viewBox="0 0 512 512" style="enable-background:new 0 0 512 512;" xml:space="preserve">
<style type="text/css">
	.st0{fill:#B8C6FF;}
	.st1{fill:#8891BF;}
	.st2{fill:none;stroke:#8891BF;stroke-width:4;stroke-miterlimit:10;}
	.st3{fill:none;stroke:#232323;stroke-width:4;stroke-miterlimit:10;}
</style>
<g>
	<g>
		<g id="XMLID_1_">
			<g>
				<path class="st0" d="M456.7,306.8c6.2,10.8-5.9,30.4-29.2,50.6c-7.4-6.5-15.9-12.9-25.4-19.1c-0.8-11.2-2.1-21.9-3.9-31.5
					c5.9-2.1,11.6-3.8,16.9-5c0.2,0.8,0.5,1.5,0.9,2.2c2.3,4.1,7.5,5.4,11.5,3.1c2.9-1.6,4.4-4.9,4.2-8
					C444.3,298.2,453.2,300.6,456.7,306.8z"/>
				<path class="st0" d="M427.5,357.4c23.2,20.2,35.5,39.8,29.2,50.6c-6.2,10.8-29.3,10-58.4,0c1.9-9.6,3.2-20.2,3.9-31.5
					C411.6,370.3,420.1,363.8,427.5,357.4z"/>
				<path class="st1" d="M431.9,299.1c0.2,3.2-1.3,6.3-4.2,8c-4,2.3-9.2,1-11.5-3.1c-0.5-0.7-0.8-1.4-0.9-2.2
					C421.2,300.3,426.9,299.5,431.9,299.1z"/>
				<path class="st1" d="M430.8,295.6c0.7,1.1,1,2.3,1.1,3.5c-5,0.4-10.6,1.3-16.6,2.7c-0.8-3.5,0.7-7.4,4-9.3
					C423.3,290.1,428.4,291.6,430.8,295.6z"/>
				<path class="st0" d="M402.2,338.3c9.4,6.2,17.9,12.8,25.3,19.1c-7.4,6.4-15.9,12.9-25.3,19.1c0.4-6.2,0.6-12.6,0.6-19.1
					C402.8,350.9,402.6,344.5,402.2,338.3z"/>
				<path class="st0" d="M402.2,338.3c0.4,6.2,0.6,12.6,0.6,19.1c0,6.5-0.2,12.9-0.6,19.1c-5.2,3.4-10.6,6.8-16.3,10.1
					c-5.7,3.3-11.3,6.3-16.9,9.1c-5.5-2.8-11.2-5.8-16.9-9.1c-5.7-3.3-11.1-6.7-16.3-10.1c-0.4-6.2-0.6-12.6-0.6-19.1
					c0-6.5,0.2-13,0.6-19.1c5.2-3.5,10.6-6.8,16.3-10.1c5.7-3.2,11.3-6.3,16.9-9.1c5.6,2.8,11.2,5.8,16.9,9.1
					C391.6,331.5,397,334.8,402.2,338.3z"/>
				<path class="st0" d="M398.3,306.8c1.9,9.6,3.2,20.2,3.9,31.5c-5.2-3.5-10.6-6.8-16.3-10.1c-5.7-3.3-11.3-6.3-16.9-9.1
					C379.2,314.1,389,310,398.3,306.8z"/>
				<path class="st0" d="M402.2,376.5c-0.8,11.2-2.1,21.9-3.9,31.5c-9.2-3.2-19.1-7.4-29.2-12.4c5.6-2.8,11.2-5.8,16.9-9.1
					C391.6,383.4,397,380,402.2,376.5z"/>
				<path class="st1" d="M394.1,425.3c3.5,1,6.1,4.3,6.1,8.1c0,4.7-3.8,8.4-8.4,8.4c-1.3,0-2.5-0.3-3.6-0.8
					C390.3,436.5,392.3,431.2,394.1,425.3z"/>
				<path class="st0" d="M398.3,408c-1.2,6.1-2.6,11.9-4.2,17.2c-0.8-0.2-1.6-0.4-2.4-0.4c-4.6,0-8.4,3.8-8.4,8.4
					c0,3.4,1.9,6.3,4.8,7.7c-5.4,11.2-12,17.7-19,17.7c-12.5,0-23.4-20.3-29.2-50.6c9.2-3.2,19.1-7.3,29.2-12.4
					C379.2,400.7,389,404.8,398.3,408z"/>
				<path class="st0" d="M369,256.2c12.5,0,23.4,20.3,29.2,50.6c-9.2,3.2-19.1,7.3-29.2,12.4c-10.1-5-19.9-9.2-29.2-12.4
					C345.6,276.5,356.6,256.2,369,256.2z"/>
				<path class="st1" d="M394.1,425.3c-1.8,5.9-3.8,11.2-6,15.8c-2.9-1.4-4.8-4.3-4.8-7.7c0-4.7,3.8-8.4,8.4-8.4
					C392.5,424.9,393.3,425.1,394.1,425.3z"/>
				<path class="st0" d="M369,319.2c-5.5,2.8-11.2,5.8-16.9,9.1c-5.7,3.3-11.1,6.7-16.3,10.1c0.8-11.2,2.1-21.9,3.9-31.5
					C349.1,310,358.9,314.1,369,319.2z"/>
				<path class="st0" d="M352.2,386.7c5.7,3.3,11.3,6.3,16.9,9.1c-10.1,5-19.9,9.2-29.2,12.4c-1.9-9.6-3.2-20.2-3.9-31.5
					C341.1,380,346.5,383.4,352.2,386.7z"/>
				<path class="st0" d="M339.8,306.8c-1.9,9.6-3.2,20.2-3.9,31.5c-9.4,6.3-17.9,12.8-25.4,19.1c-4.8-4.1-9.1-8.2-12.8-12.3
					c0.7-0.6,1.2-1.3,1.6-2.1c2.3-4,1-9.2-3.1-11.5c-3-1.7-6.6-1.4-9.2,0.5c-6.9-10.2-9.2-19.1-5.7-25.3
					C287.6,296,310.7,296.7,339.8,306.8z"/>
				<path class="st0" d="M335.9,376.5c0.8,11.2,2.1,21.9,3.9,31.5c-29.1,10-52.2,10.8-58.4,0c-6.2-10.8,5.9-30.5,29.2-50.6
					C318,363.8,326.5,370.3,335.9,376.5z"/>
				<path class="st0" d="M335.9,338.3c-0.4,6.2-0.6,12.6-0.6,19.1c0,6.5,0.2,12.9,0.6,19.1c-9.4-6.2-17.9-12.8-25.4-19.1
					C318,351,326.5,344.5,335.9,338.3z"/>
				<path class="st1" d="M296.3,331.5c4.1,2.3,5.4,7.5,3.1,11.5c-0.5,0.8-1,1.5-1.6,2.1c-4.3-4.5-7.8-8.9-10.6-13.1
					C289.7,330.1,293.3,329.8,296.3,331.5z"/>
				<path class="st1" d="M297.7,345.1c-2.6,2.4-6.6,2.9-9.8,1.1c-4-2.3-5.4-7.5-3.1-11.6c0.6-1,1.4-1.9,2.3-2.6
					C289.9,336.2,293.4,340.6,297.7,345.1z"/>
			</g>
			<g>
				<path class="st2" d="M287.1,332.1c-6.9-10.2-9.2-19.1-5.7-25.3c6.2-10.8,29.3-10.1,58.4,0c9.2,3.2,19.1,7.3,29.2,12.4
					c5.6,2.8,11.2,5.8,16.9,9.1c5.7,3.3,11.1,6.7,16.3,10.1c9.4,6.2,17.9,12.8,25.3,19.1c23.2,20.2,35.5,39.8,29.2,50.6
					c-6.2,10.8-29.3,10.1-58.4,0c-9.2-3.2-19.1-7.3-29.2-12.4c-5.5-2.8-11.2-5.8-16.9-9.1c-5.7-3.3-11.1-6.7-16.3-10.1
					c-9.4-6.2-17.9-12.8-25.4-19.1c-4.8-4.1-9.1-8.2-12.8-12.3"/>
				<path class="st3" d="M287.1,332.1c2.6-2,6.2-2.2,9.2-0.5c4.1,2.3,5.4,7.5,3.1,11.5c-0.5,0.8-1,1.5-1.6,2.1
					c-2.6,2.4-6.6,2.9-9.8,1c-4-2.3-5.4-7.5-3.1-11.5C285.3,333.6,286.2,332.7,287.1,332.1z"/>
				<path class="st2" d="M431.9,299.1c12.4-0.9,21.3,1.6,24.8,7.7c6.2,10.8-5.9,30.4-29.2,50.6c-7.4,6.4-15.9,12.9-25.4,19.1
					c-5.2,3.4-10.6,6.8-16.3,10.1c-5.7,3.3-11.3,6.3-16.9,9.1c-10.1,5-20,9.2-29.2,12.4c-29.1,10.1-52.2,10.8-58.4,0
					c-6.2-10.8,5.9-30.4,29.2-50.6c7.4-6.4,15.9-12.9,25.3-19.1c5.2-3.4,10.6-6.8,16.3-10c5.7-3.2,11.3-6.3,16.9-9.1
					c10.1-5,19.9-9.1,29.2-12.4c5.9-2.1,11.6-3.8,16.9-5"/>
				<path class="st3" d="M415.2,301.8c-0.8-3.5,0.7-7.3,4-9.3c4-2.3,9.2-1,11.5,3.1c0.7,1.1,1,2.3,1.1,3.5c0.2,3.1-1.3,6.3-4.2,8
					c-4,2.3-9.2,1-11.5-3.1C415.8,303.3,415.5,302.6,415.2,301.8z"/>
				<path class="st2" d="M388.1,441c-5.4,11.2-12,17.7-19.1,17.7c-12.4,0-23.4-20.3-29.2-50.6c-1.9-9.6-3.2-20.2-3.9-31.5
					c-0.4-6.2-0.6-12.6-0.6-19.1c0-6.5,0.2-13,0.6-19.1c0.8-11.2,2.1-21.9,3.9-31.5c5.9-30.3,16.7-50.6,29.2-50.6
					c12.5,0,23.4,20.3,29.2,50.6c1.9,9.6,3.2,20.2,3.9,31.5c0.4,6.2,0.6,12.6,0.6,19.1c0,6.5-0.2,12.9-0.6,19.1
					c-0.8,11.2-2.1,21.9-3.9,31.5c-1.2,6.1-2.6,11.9-4.2,17.2"/>
				<path class="st3" d="M394.1,425.3c3.5,1,6.1,4.3,6.1,8.1c0,4.7-3.8,8.4-8.4,8.4c-1.3,0-2.5-0.3-3.6-0.8
					c-2.8-1.4-4.8-4.3-4.8-7.7c0-4.6,3.8-8.4,8.4-8.4C392.5,424.9,393.3,425.1,394.1,425.3z"/>
			</g>
		</g>
	</g>
	<circle class="st3" cx="369" cy="357.4" r="16.9"/>
</g>
<g>
	<g>
		<g id="XMLID_2_">
			<g>
				<path class="st0" d="M229.3,99.3c6.2,10.8-5.9,30.4-29.2,50.6c-7.4-6.5-15.9-12.9-25.3-19.1c-0.8-11.2-2.1-21.9-3.9-31.5
					c5.9-2.1,11.6-3.8,17-5c0.2,0.8,0.4,1.5,0.9,2.2c2.3,4,7.5,5.4,11.5,3.1c2.9-1.6,4.4-4.9,4.2-8
					C216.8,90.7,225.8,93.1,229.3,99.3z"/>
				<path class="st0" d="M200.1,149.9c23.2,20.2,35.5,39.8,29.2,50.6c-6.2,10.8-29.3,10-58.4,0c1.9-9.6,3.2-20.2,3.9-31.5
					C184.1,162.8,192.7,156.3,200.1,149.9z"/>
				<path class="st1" d="M204.5,91.6c0.2,3.2-1.3,6.3-4.2,8c-4,2.3-9.2,1-11.5-3.1c-0.5-0.7-0.8-1.4-0.9-2.2
					C193.8,92.8,199.4,92,204.5,91.6z"/>
				<path class="st1" d="M203.3,88.1c0.7,1.1,1,2.3,1.1,3.5c-5,0.4-10.6,1.3-16.6,2.7c-0.8-3.5,0.7-7.4,4-9.3
					C195.8,82.6,201,84,203.3,88.1z"/>
				<path class="st0" d="M174.8,130.8c9.4,6.2,17.9,12.8,25.3,19.1c-7.4,6.4-15.9,12.9-25.3,19.1c0.4-6.2,0.6-12.6,0.6-19.1
					S175.1,137,174.8,130.8z"/>
				<path class="st0" d="M174.8,130.8c0.4,6.2,0.6,12.6,0.6,19.1s-0.2,12.9-0.6,19.1c-5.2,3.4-10.6,6.8-16.3,10.1
					c-5.7,3.3-11.3,6.3-16.9,9.1c-5.6-2.8-11.2-5.8-16.9-9.1c-5.7-3.3-11.1-6.7-16.3-10.1c-0.4-6.2-0.6-12.6-0.6-19.1
					s0.2-13,0.6-19.1c5.2-3.5,10.6-6.8,16.3-10.1s11.3-6.3,16.9-9.1c5.5,2.8,11.2,5.8,16.9,9.1C164.2,124,169.6,127.3,174.8,130.8z"
					/>
				<path class="st0" d="M170.9,99.3c1.9,9.6,3.2,20.2,3.9,31.5c-5.2-3.5-10.6-6.8-16.3-10.1c-5.7-3.3-11.3-6.3-16.9-9.1
					C151.7,106.6,161.6,102.5,170.9,99.3z"/>
				<path class="st0" d="M174.8,169c-0.8,11.2-2.1,21.9-3.9,31.5c-9.2-3.2-19.1-7.3-29.2-12.4c5.5-2.8,11.2-5.8,16.9-9.1
					C164.2,175.8,169.6,172.5,174.8,169z"/>
				<path class="st1" d="M166.7,217.8c3.5,1,6.1,4.3,6.1,8.1c0,4.7-3.8,8.4-8.4,8.4c-1.3,0-2.6-0.3-3.6-0.8
					C162.9,228.9,164.9,223.7,166.7,217.8z"/>
				<path class="st0" d="M170.9,200.5c-1.2,6.2-2.6,11.9-4.2,17.2c-0.8-0.2-1.6-0.4-2.4-0.4c-4.7,0-8.4,3.8-8.4,8.4
					c0,3.4,2,6.3,4.8,7.7c-5.4,11.2-12,17.7-19.1,17.7c-12.4,0-23.4-20.3-29.2-50.6c9.2-3.2,19.1-7.3,29.2-12.4
					C151.7,193.2,161.6,197.3,170.9,200.5z"/>
				<path class="st0" d="M141.6,48.6c12.4,0,23.4,20.3,29.2,50.6c-9.2,3.2-19.1,7.3-29.2,12.4c-10.1-5-20-9.2-29.3-12.4
					C118.2,69,129.2,48.6,141.6,48.6z"/>
				<path class="st1" d="M166.7,217.8c-1.8,5.9-3.8,11.2-6,15.8c-2.8-1.3-4.8-4.3-4.8-7.7c0-4.7,3.8-8.4,8.4-8.4
					C165.1,217.4,165.9,217.5,166.7,217.8z"/>
				<path class="st0" d="M141.6,111.6c-5.6,2.8-11.2,5.8-16.9,9.1c-5.7,3.3-11.1,6.7-16.3,10.1c0.8-11.2,2.1-21.9,3.9-31.5
					C121.7,102.5,131.5,106.6,141.6,111.6z"/>
				<path class="st0" d="M124.7,179.1c5.7,3.3,11.3,6.3,16.9,9.1c-10.1,5-20,9.2-29.3,12.4c-1.9-9.6-3.2-20.2-3.9-31.5
					C113.6,172.5,119,175.8,124.7,179.1z"/>
				<path class="st0" d="M112.4,99.3c-1.9,9.6-3.2,20.2-3.9,31.5c-9.4,6.3-17.9,12.8-25.4,19.1c-4.8-4.1-9.1-8.2-12.8-12.3
					c0.7-0.6,1.2-1.3,1.7-2.1c2.3-4,1-9.2-3.1-11.5c-3-1.7-6.6-1.4-9.2,0.5c-6.9-10.2-9.2-19.1-5.7-25.3
					C60.2,88.5,83.3,89.2,112.4,99.3z"/>
				<path class="st0" d="M108.5,169c0.8,11.2,2.1,21.9,3.9,31.5c-29.1,10-52.2,10.8-58.4,0c-6.2-10.8,5.9-30.5,29.2-50.6
					C90.5,156.3,99.1,162.8,108.5,169z"/>
				<path class="st0" d="M108.5,130.8c-0.4,6.2-0.6,12.6-0.6,19.1s0.2,12.9,0.6,19.1c-9.4-6.2-17.9-12.8-25.4-19.1
					C90.5,143.4,99.1,137,108.5,130.8z"/>
				<path class="st1" d="M68.9,124c4,2.3,5.4,7.5,3.1,11.5c-0.5,0.8-1,1.5-1.6,2.1c-4.3-4.5-7.8-8.9-10.6-13.1
					C62.3,122.6,65.9,122.3,68.9,124z"/>
				<path class="st1" d="M70.3,137.6c-2.6,2.4-6.6,2.9-9.8,1.1c-4-2.3-5.4-7.5-3.1-11.6c0.6-1,1.4-1.9,2.3-2.6
					C62.5,128.7,66,133.1,70.3,137.6z"/>
			</g>
			<g>
				<path class="st2" d="M59.6,124.5c-6.9-10.2-9.2-19.1-5.7-25.3c6.2-10.8,29.3-10.1,58.4,0c9.2,3.2,19.1,7.3,29.3,12.4
					c5.5,2.8,11.2,5.8,16.9,9.1c5.7,3.3,11.1,6.7,16.3,10.1c9.4,6.2,17.9,12.8,25.3,19.1c23.2,20.2,35.5,39.8,29.2,50.6
					c-6.2,10.8-29.3,10.1-58.4,0c-9.2-3.2-19.1-7.3-29.2-12.4c-5.5-2.8-11.2-5.8-16.9-9.1c-5.7-3.3-11.1-6.7-16.3-10.1
					c-9.4-6.2-17.9-12.8-25.4-19.1c-4.8-4.1-9.1-8.2-12.8-12.3"/>
				<path class="st3" d="M59.6,124.5c2.6-2,6.2-2.2,9.2-0.5c4,2.3,5.4,7.5,3.1,11.5c-0.5,0.8-1,1.5-1.6,2.1
					c-2.6,2.4-6.6,2.9-9.8,1.1c-4-2.3-5.4-7.5-3.1-11.6C57.9,126,58.7,125.2,59.6,124.5z"/>
				<path class="st2" d="M204.5,91.6c12.4-0.9,21.3,1.6,24.8,7.7c6.2,10.8-5.9,30.4-29.2,50.6c-7.4,6.4-15.9,12.9-25.3,19.1
					c-5.2,3.4-10.6,6.8-16.3,10.1c-5.7,3.3-11.3,6.3-16.9,9.1c-10.1,5-20,9.2-29.2,12.4c-29.1,10.1-52.2,10.8-58.4,0
					c-6.2-10.8,5.9-30.4,29.2-50.6c7.4-6.4,15.9-12.9,25.4-19.1c5.2-3.4,10.6-6.8,16.3-10c5.7-3.2,11.3-6.3,16.9-9.1
					c10.1-5,20-9.1,29.2-12.4c5.9-2.1,11.6-3.8,17-5"/>
				<path class="st3" d="M187.8,94.2c-0.8-3.5,0.7-7.3,4-9.3c4.1-2.3,9.2-1,11.6,3.1c0.7,1.1,1,2.3,1.1,3.5c0.2,3.1-1.3,6.3-4.2,8
					c-4,2.3-9.2,1-11.5-3.1C188.3,95.8,188,95.1,187.8,94.2z"/>
				<path class="st2" d="M160.7,233.4c-5.4,11.2-12,17.7-19,17.7c-12.5,0-23.4-20.3-29.3-50.6c-1.9-9.6-3.2-20.2-3.9-31.5
					c-0.4-6.2-0.6-12.6-0.6-19.1s0.2-13,0.6-19.1c0.8-11.2,2.1-21.9,3.9-31.5c5.9-30.3,16.7-50.6,29.3-50.6S165,69,170.9,99.3
					c1.9,9.6,3.2,20.2,3.9,31.5c0.4,6.2,0.6,12.6,0.6,19.1s-0.2,12.9-0.6,19.1c-0.8,11.2-2.1,21.9-3.9,31.5
					c-1.2,6.2-2.6,11.9-4.2,17.2"/>
				<path class="st3" d="M166.7,217.8c3.5,1,6.1,4.3,6.1,8.1c0,4.7-3.8,8.4-8.4,8.4c-1.3,0-2.6-0.3-3.6-0.8
					c-2.8-1.3-4.8-4.3-4.8-7.7c0-4.7,3.8-8.4,8.4-8.4C165.1,217.4,165.9,217.5,166.7,217.8z"/>
			</g>
		</g>
	</g>
	<circle class="st3" cx="141.6" cy="149.9" r="16.9"/>
</g>
</svg>
