<?xml version="1.0" encoding="utf-8"?>
<!-- Generator: Adobe Illustrator 21.0.0, SVG Export Plug-In . SVG Version: 6.00 Build 0)  -->
<svg version="1.1" id="Layer_1" xmlns="http://www.w3.org/2000/svg" xmlns:xlink="http://www.w3.org/1999/xlink" x="0px" y="0px"
	 viewBox="0 0 512 512" style="enable-background:new 0 0 512 512;" xml:space="preserve">
<style type="text/css">
	.st0{fill:#B8C6FF;}
	.st1{fill:#8891BF;}
	.st2{fill:none;stroke:#8891BF;stroke-width:4;stroke-miterlimit:10;}
	.st3{fill:none;stroke:#232323;stroke-width:4;stroke-miterlimit:10;}
</style>
<g>
	<g>
		<g id="XMLID_1_">
			<g>
				<path class="st0" d="M509.6,359.4c6.2,10.8-5.9,30.4-29.2,50.6c-7.4-6.5-15.9-12.9-25.3-19.1c-0.8-11.2-2.1-21.9-3.9-31.5
					c5.9-2.1,11.6-3.8,17-5c0.1,0.8,0.5,1.5,0.9,2.2c2.3,4.1,7.5,5.4,11.6,3.1c2.9-1.6,4.4-4.9,4.2-8
					C497.2,350.9,506.1,353.2,509.6,359.4z"/>
				<path class="st0" d="M480.5,410c23.2,20.2,35.5,39.8,29.2,50.6c-6.2,10.8-29.3,10-58.4,0c1.9-9.6,3.2-20.2,3.9-31.5
					C464.5,422.9,473,416.4,480.5,410z"/>
				<path class="st1" d="M484.8,351.8c0.2,3.2-1.3,6.3-4.2,8c-4.1,2.3-9.2,1-11.6-3.1c-0.4-0.7-0.8-1.4-0.9-2.2
					C474.2,353,479.8,352.1,484.8,351.8z"/>
				<path class="st1" d="M483.7,348.2c0.7,1.1,1,2.3,1.1,3.5c-5,0.4-10.6,1.3-16.6,2.7c-0.8-3.5,0.7-7.4,4-9.3
					C476.2,342.8,481.4,344.2,483.7,348.2z"/>
				<path class="st0" d="M455.1,390.9c9.4,6.2,17.9,12.8,25.4,19.1c-7.4,6.4-15.9,12.9-25.4,19.1c0.4-6.2,0.6-12.6,0.6-19.1
					C455.7,403.5,455.5,397.1,455.1,390.9z"/>
				<path class="st0" d="M455.1,390.9c0.4,6.2,0.6,12.6,0.6,19.1c0,6.5-0.2,12.9-0.6,19.1c-5.2,3.4-10.6,6.8-16.3,10.1
					c-5.7,3.3-11.3,6.3-16.9,9.1c-5.5-2.8-11.2-5.8-16.9-9.1c-5.7-3.3-11.1-6.7-16.3-10.1c-0.4-6.2-0.6-12.6-0.6-19.1
					c0-6.5,0.2-13,0.6-19.1c5.2-3.5,10.6-6.8,16.3-10.1c5.7-3.2,11.3-6.3,16.9-9.1c5.5,2.8,11.2,5.8,16.9,9.1
					C444.5,384.2,449.9,387.5,455.1,390.9z"/>
				<path class="st0" d="M451.2,359.4c1.9,9.6,3.2,20.2,3.9,31.5c-5.2-3.5-10.6-6.8-16.3-10.1c-5.7-3.3-11.3-6.3-16.9-9.1
					C432.1,366.8,441.9,362.6,451.2,359.4z"/>
				<path class="st0" d="M455.1,429.2c-0.8,11.2-2.1,21.9-3.9,31.5c-9.2-3.2-19.1-7.4-29.2-12.4c5.5-2.8,11.2-5.8,16.9-9.1
					C444.5,436,449.9,432.6,455.1,429.2z"/>
				<path class="st1" d="M447,477.9c3.5,1,6.1,4.3,6.1,8.1c0,4.7-3.8,8.4-8.4,8.4c-1.3,0-2.5-0.3-3.6-0.8
					C443.3,489.1,445.2,483.8,447,477.9z"/>
				<path class="st0" d="M451.2,460.7c-1.2,6.1-2.6,11.9-4.2,17.2c-0.8-0.2-1.6-0.4-2.4-0.4c-4.7,0-8.4,3.8-8.4,8.4
					c0,3.4,2,6.3,4.8,7.7c-5.4,11.2-12,17.7-19,17.7c-12.5,0-23.4-20.3-29.2-50.6c9.2-3.2,19.1-7.3,29.2-12.4
					C432.1,453.3,441.9,457.4,451.2,460.7z"/>
				<path class="st0" d="M422,308.8c12.5,0,23.4,20.3,29.2,50.6c-9.2,3.2-19.1,7.3-29.2,12.4c-10.1-5-20-9.2-29.2-12.4
					C398.6,329.1,409.5,308.8,422,308.8z"/>
				<path class="st1" d="M447,477.9c-1.8,5.9-3.8,11.2-6,15.8c-2.8-1.4-4.8-4.3-4.8-7.7c0-4.7,3.8-8.4,8.4-8.4
					C445.4,477.5,446.3,477.7,447,477.9z"/>
				<path class="st0" d="M422,371.8c-5.5,2.8-11.2,5.8-16.9,9.1c-5.7,3.3-11.1,6.7-16.3,10.1c0.8-11.2,2.1-21.9,3.9-31.5
					C402,362.6,411.8,366.8,422,371.8z"/>
				<path class="st0" d="M405.1,439.3c5.7,3.3,11.3,6.3,16.9,9.1c-10.1,5-20,9.2-29.2,12.4c-1.9-9.6-3.2-20.2-3.9-31.5
					C394,432.6,399.4,436,405.1,439.3z"/>
				<path class="st0" d="M392.7,359.4c-1.9,9.6-3.2,20.2-3.9,31.5c-9.4,6.3-17.9,12.8-25.4,19.1c-4.8-4.1-9.1-8.2-12.8-12.3
					c0.7-0.6,1.2-1.3,1.6-2.1c2.3-4,1-9.2-3.1-11.5c-3-1.7-6.6-1.4-9.2,0.5c-6.9-10.2-9.2-19.1-5.7-25.3
					C340.5,348.6,363.6,349.4,392.7,359.4z"/>
				<path class="st0" d="M388.8,429.2c0.8,11.2,2.1,21.9,3.9,31.5c-29.1,10-52.2,10.8-58.4,0c-6.2-10.8,5.9-30.5,29.2-50.6
					C370.9,416.4,379.4,422.9,388.8,429.2z"/>
				<path class="st0" d="M388.8,390.9c-0.4,6.2-0.6,12.6-0.6,19.1c0,6.5,0.2,12.9,0.6,19.1c-9.4-6.2-17.9-12.8-25.4-19.1
					C370.9,403.6,379.4,397.1,388.8,390.9z"/>
				<path class="st1" d="M349.2,384.2c4,2.3,5.4,7.5,3.1,11.5c-0.5,0.8-1.1,1.5-1.7,2.1c-4.3-4.5-7.8-8.9-10.6-13.1
					C342.6,382.7,346.2,382.4,349.2,384.2z"/>
				<path class="st1" d="M350.6,397.7c-2.6,2.4-6.6,2.9-9.8,1.1c-4-2.3-5.4-7.5-3.1-11.6c0.6-1,1.4-1.9,2.3-2.6
					C342.8,388.9,346.4,393.2,350.6,397.7z"/>
			</g>
			<g>
				<path class="st2" d="M340,384.7c-6.9-10.2-9.2-19.1-5.7-25.3c6.2-10.8,29.3-10.1,58.4,0c9.2,3.2,19.1,7.3,29.2,12.4
					c5.5,2.8,11.2,5.8,16.9,9.1c5.7,3.3,11.1,6.7,16.3,10.1c9.4,6.2,17.9,12.8,25.4,19.1c23.2,20.2,35.5,39.8,29.2,50.6
					c-6.2,10.8-29.3,10.1-58.4,0c-9.2-3.2-19.1-7.3-29.2-12.4c-5.6-2.8-11.2-5.8-16.9-9.1c-5.7-3.3-11.1-6.7-16.3-10.1
					c-9.4-6.2-17.9-12.8-25.3-19.1c-4.8-4.1-9.1-8.2-12.8-12.3"/>
				<path class="st3" d="M340,384.7c2.6-2,6.2-2.2,9.2-0.5c4,2.3,5.4,7.5,3.1,11.5c-0.5,0.8-1.1,1.5-1.7,2.1c-2.6,2.4-6.6,2.9-9.8,1
					c-4.1-2.3-5.4-7.5-3.1-11.5C338.3,386.2,339.1,385.4,340,384.7z"/>
				<path class="st2" d="M484.8,351.8c12.4-0.9,21.3,1.6,24.8,7.7c6.2,10.8-5.9,30.4-29.2,50.6c-7.4,6.4-15.9,12.9-25.3,19.1
					c-5.2,3.4-10.6,6.8-16.3,10.1c-5.7,3.3-11.3,6.3-16.9,9.1c-10.1,5-20,9.2-29.2,12.4c-29.1,10.1-52.2,10.8-58.4,0
					c-6.2-10.8,5.9-30.4,29.2-50.6c7.4-6.4,15.9-12.9,25.4-19.1c5.2-3.4,10.6-6.8,16.3-10s11.3-6.3,16.9-9.1
					c10.1-5,20-9.1,29.2-12.4c5.9-2.1,11.6-3.8,17-5"/>
				<path class="st3" d="M468.2,354.4c-0.8-3.5,0.7-7.3,4-9.3c4-2.3,9.2-1,11.5,3.1c0.7,1.1,1,2.3,1.1,3.5c0.2,3.1-1.3,6.3-4.2,8
					c-4.1,2.3-9.2,1-11.6-3.1C468.7,356,468.4,355.2,468.2,354.4z"/>
				<path class="st2" d="M441,493.6c-5.4,11.2-12,17.7-19,17.7c-12.5,0-23.4-20.3-29.2-50.6c-1.9-9.6-3.2-20.2-3.9-31.5
					c-0.4-6.2-0.6-12.6-0.6-19.1c0-6.5,0.2-13,0.6-19.1c0.8-11.2,2.1-21.9,3.9-31.5c5.9-30.3,16.7-50.6,29.2-50.6
					s23.4,20.3,29.2,50.6c1.9,9.6,3.2,20.2,3.9,31.5c0.4,6.2,0.6,12.6,0.6,19.1c0,6.5-0.2,12.9-0.6,19.1
					c-0.8,11.2-2.1,21.9-3.9,31.5c-1.2,6.1-2.6,11.9-4.2,17.2"/>
				<path class="st3" d="M447,477.9c3.5,1,6.1,4.3,6.1,8.1c0,4.7-3.8,8.4-8.4,8.4c-1.3,0-2.5-0.3-3.6-0.8c-2.9-1.4-4.8-4.3-4.8-7.7
					c0-4.6,3.8-8.4,8.4-8.4C445.4,477.5,446.3,477.7,447,477.9z"/>
			</g>
		</g>
	</g>
	<circle class="st3" cx="422" cy="410" r="16.9"/>
</g>
<g>
	<g>
		<g id="XMLID_2_">
			<g>
				<path class="st0" d="M179,50.6c6.2,10.8-5.9,30.5-29.2,50.6c-7.4-6.5-15.9-12.9-25.3-19.1c-0.8-11.2-2.1-21.9-3.9-31.5
					c5.9-2.1,11.6-3.8,17-5c0.2,0.8,0.4,1.5,0.9,2.2c2.3,4,7.5,5.4,11.5,3.1c2.9-1.6,4.4-4.9,4.2-8C166.6,42.1,175.5,44.5,179,50.6z
					"/>
				<path class="st0" d="M149.9,101.2c23.2,20.2,35.5,39.8,29.2,50.6s-29.3,10-58.4,0c1.9-9.6,3.2-20.2,3.9-31.5
					C133.9,114.2,142.4,107.6,149.9,101.2z"/>
				<path class="st1" d="M154.2,43c0.2,3.1-1.3,6.3-4.2,8c-4,2.3-9.2,1-11.5-3.1c-0.5-0.7-0.8-1.4-0.9-2.2
					C143.6,44.2,149.2,43.4,154.2,43z"/>
				<path class="st1" d="M153.1,39.5c0.7,1.1,1,2.3,1.1,3.5c-5,0.4-10.6,1.3-16.6,2.7c-0.8-3.5,0.7-7.4,4-9.3
					C145.6,34,150.8,35.4,153.1,39.5z"/>
				<path class="st0" d="M124.5,82.1c9.4,6.2,17.9,12.8,25.3,19.1c-7.4,6.4-15.9,12.9-25.3,19.1c0.4-6.2,0.6-12.6,0.6-19.1
					S124.9,88.4,124.5,82.1z"/>
				<path class="st0" d="M124.5,82.1c0.4,6.2,0.6,12.6,0.6,19.1c0,6.5-0.2,12.9-0.6,19.1c-5.2,3.5-10.6,6.8-16.3,10.1
					c-5.7,3.3-11.3,6.3-16.9,9.1c-5.5-2.8-11.2-5.8-16.9-9.1c-5.7-3.3-11.1-6.7-16.3-10.1c-0.4-6.2-0.6-12.6-0.6-19.1
					c0-6.5,0.2-13,0.6-19.1c5.2-3.5,10.6-6.8,16.3-10c5.7-3.2,11.3-6.3,16.9-9.1c5.5,2.8,11.2,5.8,16.9,9.1S119.3,78.7,124.5,82.1z"
					/>
				<path class="st0" d="M120.6,50.6c1.9,9.6,3.2,20.2,3.9,31.5c-5.2-3.5-10.6-6.8-16.3-10.1s-11.3-6.3-16.9-9.1
					C101.5,58,111.3,53.9,120.6,50.6z"/>
				<path class="st0" d="M124.5,120.4c-0.8,11.2-2.1,21.9-3.9,31.5c-9.2-3.2-19.1-7.3-29.2-12.4c5.5-2.8,11.2-5.8,16.9-9.1
					C113.9,127.2,119.3,123.8,124.5,120.4z"/>
				<path class="st1" d="M116.4,169.1c3.5,1,6.1,4.3,6.1,8.1c0,4.7-3.8,8.4-8.4,8.4c-1.3,0-2.5-0.3-3.6-0.8
					C112.7,180.3,114.6,175,116.4,169.1z"/>
				<path class="st0" d="M120.6,151.9c-1.2,6.2-2.6,11.9-4.2,17.2c-0.8-0.2-1.6-0.4-2.4-0.4c-4.7,0-8.4,3.8-8.4,8.4
					c0,3.4,2,6.3,4.8,7.6c-5.4,11.2-12,17.7-19,17.7c-12.5,0-23.4-20.3-29.3-50.6c9.2-3.2,19.1-7.3,29.3-12.4
					C101.5,144.5,111.3,148.7,120.6,151.9z"/>
				<path class="st0" d="M91.4,0c12.5,0,23.4,20.3,29.2,50.6c-9.2,3.2-19.1,7.4-29.2,12.4c-10.1-5-20-9.1-29.3-12.4
					C68,20.3,78.9,0,91.4,0z"/>
				<path class="st1" d="M116.4,169.1c-1.8,5.9-3.8,11.2-6,15.8c-2.8-1.3-4.8-4.3-4.8-7.7c0-4.7,3.8-8.4,8.4-8.4
					C114.8,168.8,115.7,168.9,116.4,169.1z"/>
				<path class="st0" d="M91.4,63c-5.5,2.8-11.2,5.8-16.9,9.1s-11.1,6.7-16.3,10c0.8-11.2,2.1-21.9,3.9-31.5
					C71.4,53.9,81.2,58,91.4,63z"/>
				<path class="st0" d="M74.5,130.5c5.7,3.3,11.3,6.3,16.9,9.1c-10.1,5-20,9.1-29.3,12.4c-1.9-9.6-3.2-20.2-3.9-31.5
					C63.4,123.8,68.8,127.2,74.5,130.5z"/>
				<path class="st0" d="M62.1,50.6c-1.9,9.6-3.2,20.2-3.9,31.5c-9.4,6.3-17.9,12.8-25.4,19.1C28.1,97.1,23.8,93,20,89
					c0.7-0.6,1.2-1.3,1.6-2.1c2.3-4.1,1-9.2-3.1-11.6c-3-1.7-6.6-1.4-9.2,0.5C2.5,65.6,0.2,56.7,3.7,50.6
					C9.9,39.8,33,40.6,62.1,50.6z"/>
				<path class="st0" d="M58.2,120.4c0.8,11.2,2.1,21.9,3.9,31.5c-29.1,10-52.2,10.8-58.4,0c-6.2-10.8,5.9-30.5,29.2-50.6
					C40.3,107.6,48.8,114.2,58.2,120.4z"/>
				<path class="st0" d="M58.2,82.1c-0.4,6.2-0.6,12.6-0.6,19.1c0,6.5,0.2,12.9,0.6,19.1c-9.4-6.2-17.9-12.8-25.4-19.1
					C40.3,94.8,48.8,88.4,58.2,82.1z"/>
				<path class="st1" d="M18.6,75.4c4,2.3,5.4,7.5,3.1,11.5c-0.5,0.8-1,1.5-1.6,2.1c-4.3-4.5-7.8-8.9-10.6-13.1
					C12,74,15.6,73.6,18.6,75.4z"/>
				<path class="st1" d="M20,89c-2.6,2.4-6.6,2.9-9.8,1c-4-2.3-5.4-7.5-3.1-11.5c0.6-1,1.4-2,2.3-2.6C12.2,80.1,15.8,84.5,20,89z"/>
			</g>
			<g>
				<path class="st2" d="M9.4,75.9C2.5,65.7,0.2,56.8,3.7,50.6c6.2-10.8,29.3-10,58.4,0C71.3,53.9,81.2,58,91.4,63
					c5.5,2.8,11.2,5.8,16.9,9.1s11.1,6.7,16.3,10.1c9.4,6.2,17.9,12.8,25.3,19.1c23.2,20.2,35.5,39.8,29.2,50.6
					c-6.2,10.8-29.3,10-58.4,0c-9.2-3.2-19.1-7.4-29.2-12.4c-5.5-2.8-11.2-5.8-16.9-9.1c-5.7-3.3-11.1-6.7-16.3-10.1
					c-9.4-6.2-17.9-12.8-25.4-19.1C28.1,97.1,23.9,93,20.1,89"/>
				<path class="st3" d="M9.4,75.9c2.6-1.9,6.2-2.2,9.2-0.5c4,2.3,5.4,7.5,3.1,11.5c-0.5,0.8-1,1.5-1.6,2.1
					c-2.6,2.4-6.6,2.9-9.8,1.1c-4-2.3-5.4-7.5-3.1-11.6C7.7,77.4,8.5,76.6,9.4,75.9z"/>
				<path class="st2" d="M154.2,43c12.4-0.9,21.3,1.6,24.8,7.6c6.2,10.8-5.9,30.5-29.2,50.6c-7.4,6.4-15.9,12.9-25.3,19.1
					c-5.2,3.5-10.6,6.8-16.3,10.1c-5.7,3.3-11.3,6.3-16.9,9.1c-10.1,5-20,9.1-29.3,12.4c-29.1,10-52.2,10.8-58.4,0
					c-6.2-10.8,5.9-30.5,29.2-50.6c7.4-6.5,15.9-12.9,25.4-19.1c5.2-3.5,10.6-6.8,16.3-10c5.7-3.2,11.3-6.3,16.9-9.1
					c10.1-5,20-9.1,29.2-12.4c5.9-2.1,11.6-3.8,17-5"/>
				<path class="st3" d="M137.6,45.6c-0.8-3.5,0.7-7.4,4-9.3c4.1-2.3,9.2-1,11.6,3.1c0.7,1.1,1,2.3,1.1,3.5c0.2,3.1-1.3,6.3-4.2,8
					c-4,2.3-9.2,1-11.5-3.1C138.1,47.2,137.8,46.4,137.6,45.6z"/>
				<path class="st2" d="M110.4,184.8c-5.4,11.2-12,17.7-19,17.7c-12.5,0-23.4-20.3-29.3-50.6c-1.9-9.6-3.2-20.2-3.9-31.5
					c-0.4-6.2-0.6-12.6-0.6-19.1c0-6.5,0.2-13,0.6-19.1c0.8-11.2,2.1-21.9,3.9-31.5C68,20.3,78.8,0,91.4,0s23.4,20.3,29.2,50.6
					c1.9,9.6,3.2,20.2,3.9,31.5c0.4,6.2,0.6,12.6,0.6,19.1c0,6.5-0.2,12.9-0.6,19.1c-0.8,11.2-2.1,21.9-3.9,31.5
					c-1.2,6.2-2.6,11.9-4.2,17.2"/>
				<path class="st3" d="M116.4,169.1c3.5,1,6.1,4.3,6.1,8.1c0,4.7-3.8,8.4-8.4,8.4c-1.3,0-2.5-0.3-3.6-0.8
					c-2.8-1.3-4.8-4.3-4.8-7.6c0-4.7,3.8-8.4,8.4-8.4C114.8,168.8,115.7,168.9,116.4,169.1z"/>
			</g>
		</g>
	</g>
	<circle class="st3" cx="91.4" cy="101.2" r="16.9"/>
</g>
<g>
	<g>
		<g id="XMLID_3_">
			<g>
				<path class="st0" d="M334.9,216.6c6.2,10.8-5.9,30.4-29.2,50.6c-7.4-6.5-15.9-12.9-25.4-19.1c-0.8-11.2-2.1-21.9-3.9-31.5
					c5.9-2.1,11.6-3.8,17-5c0.1,0.8,0.4,1.5,0.9,2.2c2.3,4,7.5,5.4,11.5,3.1c2.9-1.6,4.4-4.9,4.2-8
					C322.5,208,331.4,210.4,334.9,216.6z"/>
				<path class="st0" d="M305.7,267.2c23.2,20.2,35.5,39.8,29.2,50.6c-6.2,10.8-29.3,10-58.4,0c1.9-9.6,3.2-20.2,3.9-31.5
					C289.8,280.1,298.3,273.6,305.7,267.2z"/>
				<path class="st1" d="M310.1,208.9c0.2,3.1-1.3,6.3-4.2,8c-4,2.3-9.2,1-11.5-3.1c-0.5-0.7-0.8-1.4-0.9-2.2
					C299.4,210.1,305.1,209.3,310.1,208.9z"/>
				<path class="st1" d="M309,205.4c0.7,1.1,1,2.3,1.1,3.5c-5,0.4-10.6,1.3-16.6,2.7c-0.8-3.5,0.7-7.4,4-9.3
					C301.5,199.9,306.6,201.4,309,205.4z"/>
				<path class="st0" d="M280.4,248.1c9.4,6.2,17.9,12.8,25.4,19.1c-7.4,6.4-15.9,12.9-25.4,19.1c0.4-6.2,0.6-12.6,0.6-19.1
					C281,260.7,280.8,254.3,280.4,248.1z"/>
				<path class="st0" d="M280.4,248.1c0.4,6.2,0.6,12.6,0.6,19.1s-0.2,12.9-0.6,19.1c-5.2,3.5-10.6,6.8-16.3,10.1
					c-5.7,3.3-11.3,6.3-16.9,9.1c-5.5-2.8-11.2-5.8-16.9-9.1c-5.7-3.3-11.1-6.7-16.3-10.1c-0.4-6.2-0.6-12.6-0.6-19.1
					s0.2-13,0.6-19.1c5.2-3.5,10.6-6.8,16.3-10.1s11.3-6.3,16.9-9.1c5.6,2.8,11.2,5.8,16.9,9.1C269.8,241.3,275.2,244.6,280.4,248.1
					z"/>
				<path class="st0" d="M276.5,216.6c1.9,9.6,3.2,20.2,3.9,31.5c-5.2-3.5-10.6-6.8-16.3-10.1c-5.7-3.3-11.3-6.3-16.9-9.1
					C257.4,223.9,267.2,219.8,276.5,216.6z"/>
				<path class="st0" d="M280.4,286.3c-0.8,11.2-2.1,21.9-3.9,31.5c-9.2-3.2-19.1-7.4-29.3-12.4c5.6-2.8,11.2-5.8,16.9-9.1
					C269.8,293.2,275.2,289.8,280.4,286.3z"/>
				<path class="st1" d="M272.3,335.1c3.5,1,6.1,4.3,6.1,8.1c0,4.7-3.8,8.4-8.4,8.4c-1.3,0-2.5-0.3-3.6-0.8
					C268.5,346.3,270.5,341,272.3,335.1z"/>
				<path class="st0" d="M276.5,317.8c-1.2,6.1-2.6,11.9-4.2,17.2c-0.8-0.2-1.6-0.4-2.4-0.4c-4.6,0-8.4,3.8-8.4,8.4
					c0,3.4,2,6.3,4.8,7.6c-5.4,11.2-12,17.7-19,17.7c-12.5,0-23.4-20.3-29.2-50.6c9.2-3.2,19.1-7.4,29.2-12.4
					C257.4,310.5,267.2,314.6,276.5,317.8z"/>
				<path class="st0" d="M247.2,166c12.4,0,23.4,20.3,29.3,50.6c-9.2,3.2-19.1,7.4-29.3,12.4c-10.1-5-19.9-9.1-29.2-12.4
					C223.8,186.3,234.8,166,247.2,166z"/>
				<path class="st1" d="M272.3,335.1c-1.8,5.9-3.8,11.2-6,15.8c-2.9-1.4-4.8-4.3-4.8-7.7c0-4.6,3.8-8.4,8.4-8.4
					C270.7,334.7,271.5,334.9,272.3,335.1z"/>
				<path class="st0" d="M247.2,229c-5.5,2.8-11.2,5.8-16.9,9.1c-5.7,3.3-11.1,6.7-16.3,10.1c0.8-11.2,2.1-21.9,3.9-31.5
					C227.3,219.8,237.1,223.9,247.2,229z"/>
				<path class="st0" d="M230.4,296.5c5.7,3.3,11.3,6.3,16.9,9.1c-10.1,5-19.9,9.1-29.2,12.4c-1.9-9.6-3.2-20.2-3.9-31.5
					C219.3,289.8,224.7,293.2,230.4,296.5z"/>
				<path class="st0" d="M218,216.6c-1.9,9.6-3.2,20.2-3.9,31.5c-9.4,6.3-17.9,12.8-25.4,19.1c-4.8-4.1-9.1-8.2-12.8-12.3
					c0.7-0.6,1.2-1.3,1.6-2.1c2.3-4.1,1-9.2-3.1-11.6c-3-1.7-6.6-1.4-9.2,0.5c-6.9-10.2-9.2-19.1-5.7-25.3
					C165.8,205.8,188.9,206.5,218,216.6z"/>
				<path class="st0" d="M214.1,286.3c0.8,11.2,2.1,21.9,3.9,31.5c-29.1,10-52.2,10.8-58.4,0c-6.2-10.8,5.9-30.5,29.2-50.6
					C196.2,273.6,204.7,280.1,214.1,286.3z"/>
				<path class="st0" d="M214.1,248.1c-0.4,6.2-0.6,12.6-0.6,19.1s0.2,12.9,0.6,19.1c-9.4-6.2-17.9-12.8-25.4-19.1
					C196.2,260.8,204.7,254.3,214.1,248.1z"/>
				<path class="st1" d="M174.5,241.3c4.1,2.3,5.4,7.5,3.1,11.5c-0.5,0.8-1.1,1.5-1.7,2.1c-4.3-4.5-7.8-8.9-10.6-13.1
					C167.9,239.9,171.5,239.6,174.5,241.3z"/>
				<path class="st1" d="M175.9,254.9c-2.6,2.4-6.6,2.9-9.8,1.1c-4-2.3-5.4-7.5-3.1-11.6c0.6-1,1.4-1.9,2.3-2.6
					C168.1,246.1,171.6,250.4,175.9,254.9z"/>
			</g>
			<g>
				<path class="st2" d="M165.3,241.9c-6.9-10.2-9.2-19.1-5.7-25.3c6.2-10.8,29.3-10.1,58.4,0c9.2,3.2,19.1,7.4,29.2,12.4
					c5.6,2.8,11.2,5.8,16.9,9.1c5.7,3.3,11.1,6.7,16.3,10.1c9.4,6.2,17.9,12.8,25.4,19.1c23.2,20.2,35.5,39.8,29.2,50.6
					c-6.2,10.8-29.3,10-58.4,0c-9.2-3.2-19.1-7.4-29.2-12.4c-5.6-2.8-11.2-5.8-16.9-9.1c-5.7-3.3-11.1-6.7-16.3-10.1
					c-9.4-6.2-17.9-12.8-25.3-19.1c-4.8-4.1-9.1-8.2-12.8-12.3"/>
				<path class="st3" d="M165.3,241.9c2.6-2,6.2-2.2,9.2-0.5c4.1,2.3,5.4,7.5,3.1,11.5c-0.5,0.8-1.1,1.5-1.7,2.1
					c-2.6,2.4-6.6,2.9-9.8,1c-4.1-2.3-5.4-7.5-3.1-11.5C163.5,243.4,164.4,242.5,165.3,241.9z"/>
				<path class="st2" d="M310.1,208.9c12.4-0.9,21.3,1.6,24.8,7.6c6.2,10.8-5.9,30.4-29.2,50.6c-7.4,6.4-15.9,12.9-25.4,19.1
					c-5.2,3.5-10.6,6.8-16.3,10.1s-11.3,6.3-16.9,9.1c-10.1,5-20,9.1-29.2,12.4c-29.1,10-52.2,10.8-58.4,0
					c-6.2-10.8,5.9-30.5,29.2-50.6c7.4-6.5,15.9-12.9,25.3-19.1c5.2-3.4,10.6-6.8,16.3-10c5.7-3.2,11.3-6.3,16.9-9.1
					c10.1-5,20-9.1,29.2-12.4c5.9-2.1,11.6-3.8,17-5"/>
				<path class="st3" d="M293.4,211.6c-0.8-3.5,0.7-7.4,4-9.3c4-2.3,9.2-1,11.5,3.1c0.7,1.1,1,2.3,1.1,3.5c0.2,3.1-1.3,6.3-4.2,8
					c-4,2.3-9.2,1-11.5-3.1C294,213.1,293.7,212.4,293.4,211.6z"/>
				<path class="st2" d="M266.3,350.8c-5.4,11.2-12,17.7-19.1,17.7c-12.4,0-23.4-20.3-29.2-50.6c-1.9-9.6-3.2-20.2-3.9-31.5
					c-0.4-6.2-0.6-12.6-0.6-19.1s0.2-13,0.6-19.1c0.8-11.2,2.1-21.9,3.9-31.5c5.9-30.3,16.7-50.6,29.2-50.6
					c12.5,0,23.4,20.3,29.3,50.6c1.9,9.6,3.2,20.2,3.9,31.5c0.4,6.2,0.6,12.6,0.6,19.1s-0.2,12.9-0.6,19.1
					c-0.8,11.2-2.1,21.9-3.9,31.5c-1.2,6.1-2.6,11.9-4.2,17.2"/>
				<path class="st3" d="M272.3,335.1c3.5,1,6.1,4.3,6.1,8.1c0,4.7-3.8,8.4-8.4,8.4c-1.3,0-2.5-0.3-3.6-0.8
					c-2.9-1.3-4.8-4.3-4.8-7.6c0-4.7,3.8-8.4,8.4-8.4C270.7,334.7,271.5,334.9,272.3,335.1z"/>
			</g>
		</g>
	</g>
	<circle class="st3" cx="247.2" cy="267.2" r="16.9"/>
</g>
</svg>
